<?xml version="1.0" standalone="no"?>
<!DOCTYPE svg PUBLIC "-//W3C//DTD SVG 20010904//EN"
 "http://www.w3.org/TR/2001/REC-SVG-20010904/DTD/svg10.dtd">
<svg version="1.0" xmlns="http://www.w3.org/2000/svg"
 width="1475.000000pt" height="1475.000000pt" viewBox="0 0 1475.000000 1475.000000"
 preserveAspectRatio="xMidYMid meet">
<metadata>
Created by potrace 1.14, written by Peter Selinger 2001-2017
</metadata>
<g transform="translate(0.000000,1475.000000) scale(0.100000,-0.100000)"
fill="#000000" stroke="none">
<path d="M4313 12690 c-13 -5 -23 -7 -23 -5 0 2 -10 -6 -23 -18 -13 -12 -22
-25 -20 -29 2 -5 0 -8 -5 -8 -5 0 -9 -7 -9 -15 0 -8 5 -15 10 -15 5 0 4 -7 -3
-15 -10 -12 -10 -15 0 -15 10 0 10 -3 0 -15 -9 -11 -9 -15 -1 -15 7 0 9 -5 4
-12 -12 -20 -12 -38 -1 -38 6 0 5 -6 -2 -15 -10 -12 -10 -15 0 -15 9 0 9 -4
-1 -17 -11 -13 -11 -17 -1 -21 10 -3 10 -7 1 -18 -9 -11 -9 -14 1 -14 10 0 10
-3 0 -15 -10 -12 -10 -15 0 -15 10 0 10 -3 0 -15 -10 -12 -10 -15 0 -15 10 0
10 -3 0 -15 -8 -10 -9 -15 -1 -15 7 0 8 -8 1 -25 -7 -17 -6 -25 1 -25 8 0 7
-5 -1 -15 -10 -12 -10 -15 0 -15 10 0 10 -4 -1 -16 -10 -13 -10 -17 0 -24 9
-5 10 -10 2 -14 -8 -5 -8 -13 0 -28 8 -16 8 -19 -1 -13 -9 6 -9 2 -1 -14 7
-11 8 -21 3 -21 -4 0 -8 -9 -8 -20 0 -11 4 -20 8 -20 5 0 4 -9 -2 -20 -8 -15
-8 -20 2 -20 10 0 10 -2 -1 -9 -9 -6 -10 -11 -2 -15 7 -5 7 -15 1 -31 -7 -17
-6 -25 1 -25 8 0 8 -4 0 -13 -8 -10 -7 -17 1 -25 7 -7 8 -12 2 -12 -6 0 -11
-7 -11 -15 0 -8 5 -15 10 -15 5 0 4 -7 -3 -15 -8 -10 -9 -15 -1 -15 7 0 8 -8
1 -25 -7 -17 -6 -25 1 -25 8 0 7 -5 -1 -15 -10 -12 -10 -15 0 -15 10 0 10 -4
-1 -16 -10 -13 -10 -17 0 -24 9 -5 10 -10 2 -14 -8 -5 -8 -13 0 -28 8 -16 8
-19 -1 -13 -9 6 -9 2 -1 -14 7 -11 8 -21 3 -21 -4 0 -8 -9 -8 -20 0 -11 4 -20
9 -20 5 0 4 -7 -3 -15 -10 -12 -10 -15 1 -15 10 0 10 -3 1 -12 -8 -8 -8 -17
-1 -31 8 -15 8 -18 -1 -12 -9 6 -9 2 -1 -14 7 -11 8 -21 3 -21 -4 0 -8 -9 -8
-20 0 -11 4 -20 8 -20 5 0 4 -9 -2 -20 -8 -15 -8 -20 2 -20 10 0 10 -2 -1 -9
-9 -6 -10 -11 -2 -15 7 -5 7 -15 1 -31 -7 -17 -6 -25 1 -25 8 0 8 -4 0 -13 -8
-10 -7 -17 1 -25 7 -7 8 -12 2 -12 -6 0 -11 -7 -11 -15 0 -8 5 -15 10 -15 5 0
4 -7 -3 -15 -8 -10 -9 -15 -1 -15 7 0 8 -8 1 -25 -7 -17 -6 -25 1 -25 8 0 7
-5 -1 -15 -10 -12 -10 -15 0 -15 10 0 10 -4 -1 -16 -10 -13 -10 -17 0 -24 9
-5 10 -10 2 -14 -8 -5 -8 -13 0 -28 8 -16 8 -19 -1 -13 -9 6 -9 2 -1 -14 7
-11 8 -21 3 -21 -4 0 -8 -9 -8 -20 0 -11 4 -20 8 -20 5 0 4 -9 -2 -20 -8 -15
-8 -20 1 -20 8 0 8 -4 -1 -15 -10 -12 -10 -15 0 -15 9 0 9 -4 -1 -17 -11 -13
-11 -17 -1 -21 10 -3 10 -7 1 -18 -9 -11 -9 -14 1 -14 10 0 10 -3 0 -15 -10
-12 -10 -15 0 -15 10 0 10 -3 0 -15 -10 -12 -10 -15 0 -15 10 0 10 -3 0 -15
-8 -10 -9 -15 -1 -15 7 0 8 -8 1 -25 -7 -17 -6 -25 1 -25 8 0 7 -5 -1 -15 -9
-11 -9 -15 -1 -15 7 0 9 -5 4 -12 -12 -20 -12 -38 -1 -38 6 0 5 -6 -2 -15 -10
-12 -10 -15 0 -15 9 0 9 -4 -1 -17 -11 -13 -11 -17 -1 -21 10 -3 10 -7 1 -18
-9 -11 -9 -14 1 -14 10 0 10 -3 0 -15 -10 -12 -10 -15 0 -15 10 0 10 -3 0 -15
-10 -12 -10 -15 0 -15 10 0 10 -3 0 -15 -8 -10 -9 -15 -1 -15 7 0 8 -8 1 -25
-7 -17 -6 -25 1 -25 8 0 7 -5 -1 -15 -9 -11 -9 -15 -1 -15 7 0 9 -5 4 -12 -11
-18 -10 -42 2 -50 6 -5 5 -8 -4 -8 -11 0 -11 -3 -1 -15 9 -11 9 -15 1 -15 -8
0 -9 -5 -2 -18 7 -13 6 -23 -1 -30 -9 -9 -9 -12 -1 -12 8 0 9 -9 3 -29 -6 -21
-5 -31 3 -35 8 -3 7 -5 -2 -5 -11 -1 -11 -4 -1 -16 9 -11 9 -15 1 -15 -8 0 -9
-5 -2 -18 7 -13 6 -23 -1 -30 -9 -9 -9 -12 0 -12 10 0 10 -5 2 -20 -8 -15 -8
-20 2 -20 9 0 9 -3 0 -12 -8 -8 -8 -17 -1 -31 8 -15 8 -18 -1 -12 -9 6 -9 2
-1 -14 7 -11 8 -21 3 -21 -4 0 -8 -9 -8 -20 0 -11 4 -20 8 -20 5 0 4 -9 -2
-20 -8 -15 -8 -20 2 -20 10 0 10 -2 -1 -9 -9 -6 -10 -11 -2 -15 7 -5 7 -15 1
-31 -7 -18 -6 -25 2 -25 9 0 9 -3 0 -12 -8 -8 -9 -15 -1 -25 7 -7 7 -13 2 -13
-5 0 -10 -7 -10 -15 0 -8 5 -15 10 -15 5 0 4 -7 -3 -15 -8 -10 -9 -15 -1 -15
7 0 8 -8 1 -25 -7 -17 -6 -25 1 -25 8 0 7 -5 -1 -15 -10 -12 -10 -15 0 -15 10
0 10 -4 -1 -16 -10 -13 -10 -17 0 -24 9 -5 10 -10 2 -14 -8 -5 -8 -13 0 -28 8
-16 8 -19 -1 -13 -9 6 -9 2 -1 -14 7 -11 8 -21 3 -21 -4 0 -8 -9 -8 -20 0 -11
4 -20 8 -20 4 0 3 -11 -2 -24 -6 -17 -5 -26 3 -30 8 -3 8 -5 -2 -5 -11 -1 -11
-4 -1 -16 9 -11 9 -15 1 -15 -8 0 -9 -5 -2 -18 7 -13 6 -23 -1 -30 -9 -9 -9
-12 -1 -12 8 0 9 -9 3 -29 -6 -21 -5 -31 3 -35 8 -3 7 -5 -2 -5 -11 -1 -11 -4
-1 -16 9 -11 9 -15 1 -15 -8 0 -9 -5 -2 -18 7 -13 6 -23 -1 -30 -9 -9 -9 -12
0 -12 8 0 9 -7 2 -25 -7 -17 -6 -25 1 -25 8 0 7 -5 -1 -15 -10 -12 -10 -15 0
-15 9 0 9 -4 -1 -17 -11 -13 -11 -17 -1 -21 10 -3 10 -7 1 -18 -9 -11 -9 -14
1 -14 10 0 10 -3 0 -15 -10 -12 -10 -15 0 -15 10 0 10 -3 0 -15 -10 -12 -10
-15 0 -15 10 0 10 -3 0 -15 -8 -10 -9 -15 -1 -15 7 0 8 -8 1 -25 -7 -17 -6
-25 1 -25 8 0 7 -5 -1 -15 -9 -11 -9 -15 -1 -15 7 0 9 -5 4 -12 -12 -20 -12
-38 -1 -38 6 0 5 -6 -2 -15 -10 -12 -10 -15 0 -15 9 0 9 -4 -1 -17 -11 -13
-11 -17 -1 -21 10 -3 10 -7 1 -18 -9 -11 -9 -14 1 -14 10 0 10 -3 0 -15 -10
-12 -10 -15 0 -15 10 0 10 -3 0 -15 -10 -12 -10 -15 0 -15 10 0 10 -3 0 -15
-8 -10 -9 -15 -1 -15 7 0 8 -8 1 -25 -7 -17 -6 -25 1 -25 8 0 7 -5 -1 -15 -10
-12 -10 -15 0 -15 10 0 10 -4 -1 -16 -10 -13 -10 -17 0 -24 9 -5 10 -10 2 -14
-8 -5 -8 -13 0 -28 8 -16 8 -19 -1 -13 -9 6 -9 2 -1 -14 7 -11 8 -21 3 -21 -4
0 -8 -9 -8 -20 0 -11 4 -20 8 -20 5 0 4 -9 -2 -20 -8 -15 -8 -20 2 -20 10 0
10 -2 -1 -9 -9 -6 -10 -11 -2 -15 7 -5 7 -15 1 -31 -7 -17 -6 -25 1 -25 8 0 8
-4 0 -13 -8 -10 -7 -17 1 -25 7 -7 8 -12 2 -12 -6 0 -11 -7 -11 -15 0 -8 5
-15 10 -15 5 0 4 -7 -3 -15 -8 -10 -9 -15 -1 -15 7 0 8 -8 1 -25 -7 -17 -6
-25 1 -25 8 0 7 -5 -1 -15 -10 -12 -10 -15 0 -15 10 0 10 -4 -1 -16 -10 -13
-10 -17 0 -24 9 -5 10 -10 2 -14 -8 -5 -8 -13 0 -28 8 -16 8 -19 -1 -13 -9 6
-9 2 -1 -14 7 -11 8 -21 3 -21 -4 0 -8 -9 -8 -20 0 -11 4 -20 9 -20 5 0 4 -7
-3 -15 -10 -12 -10 -15 1 -15 10 0 10 -3 1 -12 -8 -8 -8 -17 -1 -31 8 -15 8
-18 -1 -12 -9 6 -9 2 -1 -14 7 -11 8 -21 3 -21 -4 0 -8 -9 -8 -20 0 -11 4 -20
8 -20 5 0 4 -9 -2 -20 -8 -15 -8 -20 2 -20 10 0 10 -2 -1 -9 -9 -6 -10 -11 -2
-15 7 -5 7 -15 1 -31 -7 -17 -6 -25 1 -25 8 0 8 -4 0 -13 -8 -10 -7 -17 1 -25
7 -7 8 -12 2 -12 -6 0 -11 -7 -11 -15 0 -8 5 -15 10 -15 5 0 4 -7 -3 -15 -8
-10 -9 -15 -1 -15 7 0 8 -8 1 -25 -7 -17 -6 -25 1 -25 8 0 7 -5 -1 -15 -10
-12 -10 -15 0 -15 10 0 10 -4 -1 -16 -10 -13 -10 -17 0 -24 9 -5 10 -10 2 -14
-8 -5 -8 -13 0 -28 8 -16 8 -19 -1 -13 -9 6 -9 2 -1 -14 7 -11 8 -21 3 -21 -4
0 -8 -9 -8 -20 0 -11 4 -20 8 -20 5 0 4 -9 -2 -20 -8 -15 -8 -20 1 -20 8 0 8
-4 -1 -15 -10 -12 -10 -15 0 -15 9 0 9 -4 -1 -17 -11 -13 -11 -17 -1 -21 10
-3 10 -7 1 -18 -9 -11 -9 -14 1 -14 10 0 10 -3 0 -15 -10 -12 -10 -15 0 -15
10 0 10 -3 0 -15 -10 -12 -10 -15 0 -15 10 0 10 -3 0 -15 -8 -10 -9 -15 -1
-15 7 0 8 -8 1 -25 -7 -17 -6 -25 1 -25 8 0 7 -5 -1 -15 -9 -11 -9 -15 -1 -15
7 0 9 -5 4 -12 -12 -20 -12 -38 -1 -38 6 0 5 -6 -2 -15 -10 -12 -10 -15 0 -15
9 0 9 -4 -1 -17 -11 -13 -11 -17 -1 -21 10 -3 10 -7 1 -18 -9 -11 -9 -14 1
-14 10 0 10 -3 0 -15 -10 -12 -10 -15 0 -15 10 0 10 -3 0 -15 -10 -12 -10 -15
0 -15 10 0 10 -3 0 -15 -8 -10 -9 -15 -1 -15 7 0 8 -8 1 -25 -7 -17 -6 -25 1
-25 8 0 7 -5 -1 -15 -9 -11 -9 -15 -1 -15 7 0 9 -5 4 -12 -11 -18 -10 -42 2
-50 6 -5 5 -8 -4 -8 -11 0 -11 -3 -1 -15 9 -11 9 -15 1 -15 -8 0 -9 -5 -2 -18
7 -13 6 -23 -1 -30 -9 -9 -9 -12 -1 -12 8 0 9 -9 3 -29 -6 -21 -5 -31 3 -35 8
-3 7 -5 -2 -5 -11 -1 -11 -4 -1 -16 9 -11 9 -15 1 -15 -8 0 -9 -5 -2 -18 7
-13 6 -23 -1 -30 -9 -9 -9 -12 0 -12 10 0 10 -5 2 -20 -8 -15 -8 -20 2 -20 9
0 9 -3 0 -12 -8 -8 -8 -17 -1 -31 8 -15 8 -18 -1 -12 -9 6 -9 2 -1 -14 7 -11
8 -21 3 -21 -4 0 -8 -9 -8 -20 0 -11 4 -20 8 -20 5 0 4 -9 -2 -20 -8 -15 -8
-20 2 -20 10 0 10 -2 -1 -9 -9 -6 -10 -11 -2 -15 7 -5 7 -15 1 -31 -7 -17 -6
-25 1 -25 8 0 8 -4 0 -13 -8 -10 -7 -17 1 -25 7 -7 8 -12 2 -12 -6 0 -11 -7
-11 -15 0 -8 5 -15 10 -15 5 0 4 -7 -3 -15 -8 -10 -9 -15 -1 -15 7 0 8 -8 1
-25 -7 -17 -6 -25 1 -25 8 0 7 -5 -1 -15 -10 -12 -10 -15 0 -15 10 0 10 -4 -1
-16 -10 -13 -10 -17 0 -24 9 -5 10 -10 2 -14 -8 -5 -8 -13 0 -28 8 -16 8 -19
-1 -13 -9 6 -9 2 -1 -14 7 -11 8 -21 3 -21 -4 0 -8 -9 -8 -20 0 -11 4 -20 8
-20 4 0 3 -11 -2 -24 -6 -17 -5 -26 3 -30 8 -3 8 -5 -2 -5 -11 -1 -11 -4 -1
-16 9 -11 9 -15 1 -15 -8 0 -9 -5 -2 -18 7 -13 6 -23 -1 -30 -9 -9 -9 -12 -1
-12 8 0 9 -9 3 -29 -6 -21 -5 -31 3 -35 8 -3 7 -5 -2 -5 -11 -1 -11 -4 -1 -16
9 -11 9 -15 1 -15 -8 0 -9 -5 -2 -18 7 -13 6 -23 -1 -30 -9 -9 -9 -12 0 -12 8
0 9 -7 2 -25 -7 -17 -6 -25 1 -25 8 0 7 -5 -1 -15 -10 -12 -10 -15 0 -15 9 0
9 -4 -1 -17 -11 -13 -11 -17 -1 -21 10 -3 10 -7 1 -18 -9 -11 -9 -14 1 -14 10
0 10 -3 0 -15 -10 -12 -10 -15 0 -15 10 0 10 -3 0 -15 -10 -12 -10 -15 0 -15
10 0 10 -3 0 -15 -8 -10 -9 -15 -1 -15 7 0 8 -8 1 -25 -7 -17 -6 -25 1 -25 8
0 7 -5 -1 -15 -9 -11 -9 -15 -1 -15 7 0 9 -5 4 -12 -12 -20 -12 -38 -1 -38 6
0 5 -6 -2 -15 -10 -12 -10 -15 0 -15 9 0 9 -4 -1 -17 -11 -13 -11 -17 -1 -21
10 -3 10 -7 1 -18 -9 -11 -9 -14 1 -14 10 0 10 -3 0 -15 -10 -12 -10 -15 0
-15 10 0 10 -3 0 -15 -10 -12 -10 -15 0 -15 10 0 10 -3 0 -15 -8 -10 -9 -15
-1 -15 7 0 8 -8 1 -25 -7 -17 -6 -25 1 -25 8 0 7 -5 -1 -15 -9 -11 -9 -15 -1
-15 7 0 9 -5 4 -12 -11 -18 -10 -42 2 -50 6 -5 5 -8 -4 -8 -11 0 -11 -3 -1
-15 9 -11 9 -15 1 -15 -8 0 -9 -5 -2 -18 7 -13 6 -23 -1 -30 -9 -9 -9 -12 -1
-12 8 0 9 -9 3 -29 -6 -21 -5 -31 3 -35 8 -3 7 -5 -2 -5 -11 -1 -11 -4 -1 -16
9 -11 9 -15 1 -15 -8 0 -9 -5 -2 -18 7 -13 6 -23 -1 -30 -9 -9 -9 -12 0 -12
10 0 10 -5 2 -20 -8 -15 -8 -20 2 -20 9 0 9 -3 0 -12 -8 -8 -8 -17 -1 -31 8
-15 8 -18 -1 -12 -9 6 -9 2 -1 -14 7 -11 8 -21 3 -21 -4 0 -8 -9 -8 -20 0 -11
4 -20 8 -20 5 0 4 -9 -2 -20 -8 -15 -8 -20 2 -20 10 0 10 -2 -1 -9 -9 -6 -10
-11 -2 -15 7 -5 7 -15 1 -31 -7 -17 -6 -25 1 -25 8 0 8 -4 0 -13 -8 -10 -7
-17 1 -25 7 -7 8 -12 2 -12 -6 0 -11 -7 -11 -15 0 -8 5 -15 10 -15 5 0 4 -7
-3 -15 -8 -10 -9 -15 -1 -15 7 0 8 -8 1 -25 -7 -17 -6 -25 1 -25 8 0 7 -5 -1
-15 -10 -12 -10 -15 0 -15 10 0 10 -4 -1 -16 -10 -13 -10 -17 0 -24 9 -5 10
-10 2 -14 -8 -5 -8 -13 0 -28 8 -16 8 -19 -1 -13 -9 6 -9 2 -1 -14 7 -11 8
-21 3 -21 -4 0 -8 -9 -8 -20 0 -11 4 -20 8 -20 4 0 3 -11 -2 -24 -6 -17 -5
-26 3 -30 8 -3 8 -5 -2 -5 -11 -1 -11 -4 -1 -16 9 -11 9 -15 1 -15 -8 0 -9 -5
-2 -18 7 -13 6 -23 -1 -30 -9 -9 -9 -12 -1 -12 8 0 9 -9 3 -29 -6 -21 -5 -31
3 -35 8 -3 7 -5 -2 -5 -11 -1 -11 -4 -1 -16 9 -11 9 -15 1 -15 -8 0 -9 -5 -2
-18 7 -13 6 -23 -1 -30 -9 -9 -9 -12 -1 -12 8 0 9 -9 3 -29 -6 -21 -5 -31 3
-35 8 -3 7 -5 -2 -5 -11 -1 -11 -4 -1 -16 9 -11 9 -15 1 -15 -8 0 -9 -5 -2
-18 7 -13 6 -23 -1 -30 -9 -9 -9 -12 -1 -12 8 0 9 -9 3 -29 -6 -21 -5 -31 3
-35 8 -3 7 -5 -2 -5 -11 -1 -11 -4 -1 -16 9 -11 9 -15 1 -15 -8 0 -9 -5 -2
-18 7 -13 6 -23 -1 -30 -9 -9 -9 -12 0 -12 10 0 10 -5 2 -20 -8 -15 -8 -20 2
-20 9 0 9 -3 0 -12 -8 -8 -8 -17 -1 -31 8 -15 8 -18 -1 -12 -9 6 -9 2 -1 -14
7 -11 8 -21 3 -21 -4 0 -8 -9 -8 -20 0 -11 4 -20 8 -20 5 0 4 -9 -2 -20 -8
-15 -8 -20 2 -20 10 0 10 -2 -1 -9 -9 -6 -10 -11 -2 -15 7 -5 7 -15 1 -31 -7
-17 -6 -25 1 -25 8 0 8 -4 0 -13 -8 -10 -7 -17 1 -25 7 -7 8 -12 2 -12 -6 0
-11 -7 -11 -15 0 -8 5 -15 10 -15 5 0 4 -7 -3 -15 -8 -10 -9 -15 -1 -15 7 0 8
-8 1 -25 -7 -17 -6 -25 1 -25 8 0 7 -5 -1 -15 -10 -12 -10 -15 0 -15 10 0 10
-4 -1 -16 -10 -13 -10 -17 0 -24 9 -5 10 -10 2 -14 -8 -5 -8 -13 0 -28 8 -16
8 -19 -1 -13 -9 6 -9 2 -1 -14 7 -11 8 -21 3 -21 -4 0 -8 -9 -8 -20 0 -11 4
-20 8 -20 4 0 3 -11 -2 -24 -6 -17 -5 -26 3 -30 8 -3 8 -5 -2 -5 -11 -1 -11
-4 -1 -16 9 -11 9 -15 1 -15 -8 0 -9 -5 -2 -18 7 -13 6 -23 -1 -30 -9 -9 -9
-12 1 -12 8 0 11 -6 7 -15 -4 -11 3 -19 19 -25 14 -5 25 -13 25 -18 0 -19 32
-7 60 24 19 21 25 34 17 38 -9 3 -9 5 0 5 9 1 10 8 3 26 -6 16 -6 25 1 25 6 0
6 7 -1 20 -6 12 -7 20 -1 20 6 0 6 11 1 30 -5 17 -5 30 -1 30 5 0 5 18 1 40
-4 22 -4 40 1 40 4 0 4 14 -1 30 -5 19 -5 30 1 30 6 0 5 8 -1 20 -6 11 -7 20
-2 20 5 0 6 23 2 50 -4 28 -4 50 0 50 4 0 4 22 0 50 -4 28 -3 50 2 50 5 0 4 9
-2 20 -8 15 -8 20 2 20 9 0 9 3 -2 10 -11 7 -11 10 -2 10 10 0 10 5 2 20 -6
11 -7 20 -2 20 5 0 6 18 2 40 -4 22 -4 40 1 40 4 0 4 14 -1 30 -5 19 -5 30 1
30 6 0 5 8 -1 20 -6 11 -7 20 -2 20 5 0 6 23 2 50 -4 27 -4 50 0 50 4 0 4 23
0 50 -4 28 -3 50 2 50 5 0 4 9 -2 20 -8 14 -8 20 0 20 8 0 8 6 0 20 -8 14 -8
20 0 20 8 0 8 6 0 20 -6 11 -7 20 -2 20 5 0 6 23 2 50 -4 27 -4 50 0 50 4 0 4
23 0 50 -4 28 -3 50 2 50 5 0 4 9 -2 20 -6 12 -7 20 -1 20 6 0 6 11 1 30 -5
17 -5 30 -1 30 5 0 5 18 1 40 -4 22 -4 40 1 40 4 0 4 14 -1 30 -5 19 -5 30 1
30 6 0 5 8 -1 20 -6 11 -7 20 -2 20 5 0 6 23 2 50 -4 28 -4 50 0 50 4 0 4 23
0 50 -4 28 -3 50 2 50 5 0 4 9 -2 20 -8 15 -8 20 2 20 9 0 9 3 -2 10 -11 7
-11 10 -2 10 10 0 10 5 2 20 -6 11 -7 20 -2 20 5 0 6 18 2 40 -4 22 -4 40 1
40 4 0 4 14 -1 30 -5 19 -5 30 1 30 6 0 5 8 -1 20 -6 11 -7 20 -2 20 5 0 6 22
2 50 -4 27 -4 50 0 50 4 0 4 23 0 50 -4 28 -3 50 2 50 5 0 4 9 -2 20 -6 11 -7
20 -2 20 5 0 6 23 2 50 -4 27 -4 50 -1 50 3 0 4 36 1 80 -3 44 -3 80 0 80 3 0
3 36 0 80 -3 44 -3 80 0 80 3 0 3 36 0 80 -3 44 -2 80 1 80 3 0 3 23 -1 50 -4
28 -3 50 2 50 5 0 4 9 -2 20 -6 11 -7 20 -2 20 5 0 6 23 2 50 -4 28 -4 50 0
50 4 0 4 23 0 50 -4 28 -3 50 2 50 5 0 4 9 -2 20 -6 12 -7 20 -1 20 6 0 6 11
1 30 -5 17 -5 30 -1 30 5 0 5 18 1 40 -4 22 -4 40 1 40 4 0 4 14 -1 30 -5 19
-5 30 1 30 6 0 5 8 -1 20 -6 11 -7 20 -2 20 5 0 6 23 2 50 -4 27 -4 50 0 50 4
0 4 22 0 50 -4 27 -3 50 2 50 5 0 4 9 -2 20 -8 15 -8 20 2 20 9 0 9 3 -2 10
-11 7 -11 10 -2 10 10 0 10 5 2 20 -6 11 -7 20 -2 20 5 0 6 18 2 40 -4 22 -4
40 1 40 4 0 4 14 -1 30 -5 19 -5 30 1 30 6 0 5 8 -1 20 -6 11 -7 20 -2 20 5 0
6 23 2 50 -4 28 -4 50 0 50 4 0 4 23 0 50 -4 28 -3 50 2 50 5 0 4 9 -2 20 -6
11 -7 20 -2 20 5 0 6 22 2 50 -4 28 -4 50 -1 50 3 0 4 36 1 80 -3 44 -3 80 0
80 3 0 3 36 0 80 -3 44 -3 80 0 80 3 0 3 36 0 80 -3 44 -3 80 0 80 3 0 3 27 0
60 -3 33 -3 60 1 60 3 0 3 18 -1 40 -4 22 -4 40 1 40 4 0 4 14 -1 30 -5 19 -5
30 1 30 6 0 5 8 -1 20 -6 11 -7 20 -2 20 5 0 6 23 2 50 -4 28 -4 50 0 50 4 0
4 22 0 50 -4 27 -3 50 2 50 5 0 4 9 -2 20 -8 15 -8 20 2 20 9 0 9 3 -2 10 -11
7 -11 10 -2 10 10 0 10 5 2 20 -6 11 -7 20 -2 20 5 0 6 18 2 40 -4 22 -4 40 0
40 4 0 4 18 0 40 -4 22 -4 40 0 40 4 0 4 18 0 40 -4 22 -4 40 1 40 4 0 4 14
-1 30 -5 19 -5 30 1 30 6 0 5 8 -1 20 -6 11 -7 20 -2 20 5 0 6 23 2 50 -4 28
-4 50 0 50 4 0 4 23 0 50 -4 28 -3 50 2 50 5 0 4 9 -2 20 -8 15 -8 20 2 20 9
0 9 3 -2 10 -11 7 -11 10 -2 10 10 0 10 5 2 20 -6 11 -7 20 -2 20 5 0 6 18 2
40 -4 22 -4 40 -1 40 4 0 4 27 1 60 -3 33 -3 60 0 60 3 0 3 36 0 80 -3 44 -3
80 0 80 3 0 3 36 0 80 -3 44 -3 80 0 80 3 0 3 36 0 80 -3 44 -2 80 1 80 3 0 3
23 -1 50 -4 28 -3 50 2 50 5 0 4 9 -2 20 -6 11 -7 20 -2 20 5 0 6 23 2 50 -4
28 -4 50 0 50 4 0 4 23 0 50 -4 28 -3 50 2 50 5 0 4 9 -2 20 -6 12 -7 20 -1
20 6 0 6 11 1 30 -5 17 -5 30 -1 30 5 0 5 18 1 40 -4 22 -4 40 1 40 4 0 4 14
-1 30 -5 19 -5 30 1 30 6 0 5 8 -1 20 -6 11 -7 20 -2 20 5 0 6 23 2 50 -4 28
-4 50 0 50 4 0 4 23 0 50 -4 28 -3 50 2 50 5 0 4 9 -2 20 -8 15 -8 20 2 20 9
0 9 3 -2 10 -11 7 -11 10 -2 10 10 0 10 5 2 20 -6 11 -7 20 -2 20 5 0 6 18 2
40 -4 22 -4 40 1 40 4 0 4 14 -1 30 -5 19 -5 30 1 30 6 0 5 8 -1 20 -6 11 -7
20 -2 20 5 0 6 23 2 50 -4 28 -4 50 0 50 4 0 4 23 0 50 -4 28 -3 50 2 50 5 0
4 9 -2 20 -6 11 -7 20 -2 20 5 0 6 23 2 50 -4 28 -4 50 -1 50 3 0 4 36 1 80
-3 44 -3 80 0 80 3 0 3 36 0 80 -3 44 -3 80 0 80 3 0 3 36 0 80 -3 44 -3 80 0
80 3 0 3 27 0 60 -3 33 -3 60 1 60 3 0 3 18 -1 40 -4 22 -4 40 1 40 4 0 4 14
-1 30 -5 19 -5 30 1 30 6 0 5 8 -1 20 -6 11 -7 20 -2 20 5 0 6 23 2 50 -4 28
-4 50 0 50 4 0 4 23 0 50 -4 28 -3 50 2 50 5 0 4 9 -2 20 -8 15 -8 20 2 20 9
0 9 3 -2 10 -11 7 -11 10 -2 10 10 0 10 5 2 20 -6 11 -7 20 -2 20 5 0 6 18 2
40 -4 22 -4 40 0 40 4 0 4 18 0 40 -4 22 -4 40 0 40 4 0 4 18 0 40 -4 22 -4
40 1 40 4 0 4 14 -1 30 -5 19 -5 30 1 30 6 0 5 8 -1 20 -6 11 -7 20 -2 20 5 0
6 23 2 50 -4 28 -4 50 0 50 4 0 4 23 0 50 -4 28 -3 50 2 50 5 0 4 9 -2 20 -8
15 -8 20 2 20 9 0 9 3 -2 10 -11 7 -11 10 -2 10 10 0 10 5 2 20 -6 11 -7 20
-3 20 4 0 8 17 8 37 0 52 27 52 36 1 3 -22 2 -38 -4 -38 -5 0 2 -15 15 -32 16
-21 27 -53 31 -85 4 -34 13 -59 28 -74 13 -13 17 -24 11 -28 -7 -4 -7 -12 -2
-20 4 -8 6 -20 3 -28 -3 -7 0 -13 7 -13 6 0 9 -4 6 -9 -3 -4 1 -17 9 -27 8
-10 15 -27 15 -37 0 -11 5 -15 11 -11 8 4 8 0 0 -15 -7 -13 -8 -21 -2 -21 6 0
8 -7 4 -15 -3 -9 1 -23 9 -33 19 -23 39 -92 26 -92 -5 0 0 -13 11 -29 12 -16
21 -34 21 -39 0 -6 5 -12 12 -14 7 -3 8 -9 3 -19 -13 -20 -15 -39 -4 -39 6 0
7 -4 4 -10 -3 -5 -1 -10 5 -10 6 0 9 -4 6 -9 -3 -5 1 -12 10 -15 9 -4 14 -13
10 -21 -3 -8 -1 -15 5 -15 6 0 6 -7 -1 -20 -8 -15 -8 -20 1 -20 6 0 9 -7 6
-15 -4 -8 -2 -17 4 -20 5 -4 6 -11 3 -17 -4 -7 -2 -8 4 -4 7 4 12 2 12 -4 0
-6 6 -8 13 -4 10 6 10 4 0 -7 -16 -16 -17 -33 -1 -23 7 4 8 3 4 -4 -4 -6 -2
-21 5 -33 8 -17 8 -20 -1 -14 -8 5 -10 3 -6 -6 3 -8 9 -22 12 -31 4 -10 11
-18 16 -18 5 0 6 -4 3 -10 -3 -5 -1 -10 5 -10 7 0 11 -16 9 -44 -2 -30 2 -49
14 -61 10 -9 15 -21 12 -26 -4 -5 -1 -9 5 -9 7 0 10 -6 7 -14 -3 -7 0 -19 6
-25 8 -8 8 -11 -2 -11 -11 0 -11 -3 -1 -15 7 -8 9 -15 6 -15 -4 0 3 -10 14
-22 11 -12 19 -29 18 -38 -1 -8 1 -21 5 -27 5 -7 4 -13 -1 -13 -6 0 -8 -9 -5
-20 3 -11 9 -17 14 -14 5 3 9 -2 9 -10 0 -9 4 -16 9 -16 5 0 11 -13 13 -30 3
-16 1 -30 -4 -30 -5 0 -4 -8 1 -19 6 -10 7 -21 4 -25 -3 -3 -1 -6 5 -6 6 0 14
-9 17 -20 4 -11 11 -18 16 -15 5 4 9 1 9 -4 0 -6 -4 -11 -10 -11 -5 0 -10 -5
-10 -11 0 -5 3 -8 8 -6 4 3 8 -11 9 -30 1 -19 7 -41 14 -49 6 -8 8 -14 5 -14
-4 0 0 -7 8 -16 9 -8 14 -20 11 -25 -4 -5 0 -9 7 -9 10 0 10 -2 -1 -9 -10 -6
-10 -10 -1 -16 9 -5 9 -9 1 -14 -8 -5 -5 -13 6 -27 19 -21 23 -33 28 -79 2
-16 5 -32 6 -35 1 -3 1 -8 0 -12 0 -5 4 -8 10 -8 5 0 8 -4 5 -9 -3 -5 1 -12
10 -15 8 -3 12 -10 9 -16 -3 -5 -1 -10 6 -10 8 0 8 -4 -1 -15 -7 -8 -8 -15 -3
-15 6 0 8 -11 5 -25 -3 -17 1 -27 12 -31 9 -3 16 -14 16 -24 0 -10 6 -21 13
-23 9 -4 9 -8 -2 -15 -9 -7 -10 -11 -2 -17 9 -5 9 -10 1 -20 -6 -7 -7 -15 -3
-17 5 -1 18 -16 31 -32 17 -22 19 -32 11 -42 -7 -8 -7 -14 -2 -14 6 0 10 -14
11 -30 0 -17 8 -37 16 -46 9 -9 14 -20 11 -25 -4 -5 -1 -9 6 -9 7 0 9 -3 6 -6
-3 -4 -2 -15 4 -25 7 -14 6 -19 -3 -19 -10 0 -10 -2 1 -9 11 -7 11 -9 0 -14
-10 -4 -10 -6 -1 -6 6 -1 12 -5 12 -11 0 -5 10 -20 22 -32 13 -13 17 -23 11
-25 -8 -3 -8 -14 -3 -33 4 -16 6 -31 2 -34 -3 -3 0 -6 6 -6 7 0 12 -7 12 -15
0 -8 5 -15 11 -15 7 0 10 -12 7 -30 -2 -16 0 -32 6 -34 6 -2 5 -5 -3 -5 -9 -1
-5 -12 13 -35 19 -26 26 -46 26 -80 0 -26 5 -46 11 -46 5 0 8 -4 4 -9 -3 -6 1
-13 8 -18 17 -10 30 -43 16 -43 -6 0 -6 -6 -1 -17 5 -10 7 -24 5 -30 -3 -7 0
-13 6 -13 6 0 10 -3 9 -7 -1 -5 6 -20 16 -35 10 -15 15 -32 11 -38 -3 -5 -1
-10 5 -10 6 0 8 -5 3 -12 -11 -19 -12 -38 -2 -38 5 0 9 -6 9 -13 0 -7 9 -23
21 -35 12 -13 17 -27 12 -35 -12 -19 -12 -37 -1 -37 6 0 8 -6 5 -14 -3 -8 1
-20 9 -26 8 -7 14 -19 14 -27 0 -8 5 -11 11 -7 8 4 8 1 1 -13 -7 -12 -7 -24 0
-36 5 -10 7 -26 3 -35 -3 -9 -3 -13 1 -9 9 9 35 -13 28 -24 -3 -5 -1 -9 4 -9
5 0 9 -7 9 -15 0 -8 -4 -12 -8 -9 -4 2 -7 -5 -6 -16 1 -11 5 -20 9 -20 4 0 8
-8 8 -17 1 -19 24 -56 31 -48 3 2 5 -5 5 -15 0 -11 -4 -20 -8 -20 -5 0 -4 -9
2 -19 5 -11 10 -27 10 -36 0 -9 8 -27 19 -40 11 -15 18 -39 17 -62 -1 -25 5
-44 17 -55 10 -9 18 -20 19 -25 0 -4 3 -7 7 -6 4 1 5 -15 1 -35 -4 -27 -2 -41
10 -50 11 -10 11 -11 1 -6 -8 4 -2 -9 13 -29 16 -20 24 -37 19 -37 -5 0 -8
-13 -5 -30 2 -16 8 -30 12 -30 6 0 21 -37 19 -49 0 -2 5 -8 13 -12 11 -7 11
-9 -1 -9 -11 0 -11 -3 -1 -15 7 -9 8 -15 2 -15 -5 0 -8 -9 -5 -20 3 -11 8 -20
12 -20 11 0 30 -54 33 -92 1 -21 6 -38 11 -38 4 0 5 -5 2 -10 -3 -6 0 -13 8
-16 7 -2 14 -11 15 -19 1 -8 3 -22 4 -30 1 -8 5 -15 10 -15 5 0 6 -6 2 -12 -9
-14 -13 -51 -6 -43 6 6 38 -37 34 -47 -1 -5 3 -8 9 -8 8 0 8 -5 -1 -15 -7 -8
-8 -15 -3 -15 6 0 9 -11 8 -25 -2 -13 6 -36 17 -50 10 -14 18 -33 16 -42 -1
-10 1 -24 5 -30 5 -7 4 -13 -2 -13 -5 0 1 -12 14 -26 14 -15 22 -30 20 -35 -3
-4 -1 -10 5 -14 7 -4 7 -12 0 -26 -8 -14 -7 -19 1 -19 7 0 10 -3 6 -6 -7 -8
21 -66 37 -76 8 -5 8 -8 0 -8 -6 0 -11 -7 -11 -15 0 -8 3 -15 6 -15 4 0 8 -12
9 -27 1 -16 7 -29 12 -31 6 -2 10 -12 10 -23 0 -10 4 -19 8 -19 5 0 9 -21 11
-47 1 -33 8 -52 23 -65 12 -10 17 -18 12 -18 -5 0 -2 -5 6 -10 12 -8 12 -10 1
-10 -11 0 -11 -3 -1 -15 7 -8 8 -15 3 -15 -6 0 -8 -11 -5 -25 2 -14 8 -25 12
-25 12 0 30 -50 30 -85 0 -19 5 -35 11 -35 5 0 8 -4 4 -9 -3 -5 1 -15 8 -23
19 -18 28 -58 14 -58 -7 0 -5 -5 3 -10 12 -8 12 -10 1 -10 -11 0 -11 -4 2 -18
10 -10 14 -22 10 -25 -3 -4 0 -7 7 -7 7 0 11 -3 7 -6 -3 -4 1 -14 10 -22 9 -9
11 -18 5 -20 -12 -4 -4 -42 10 -42 5 0 7 -9 3 -20 -4 -13 1 -25 14 -37 15 -13
17 -19 8 -25 -9 -6 -9 -8 1 -8 7 0 10 -5 6 -11 -3 -6 0 -15 7 -20 12 -8 12
-10 0 -18 -11 -7 -9 -13 8 -30 11 -11 21 -28 21 -37 0 -9 5 -12 13 -8 9 6 9 4
-1 -8 -10 -13 -10 -17 0 -22 10 -5 10 -7 1 -12 -10 -4 -10 -11 -1 -27 6 -12
16 -25 21 -29 6 -3 11 -22 11 -42 1 -20 5 -36 9 -36 5 0 5 -4 2 -10 -8 -13 26
-71 37 -64 4 3 3 -7 -2 -22 -8 -20 -8 -29 1 -34 8 -6 7 -9 -2 -13 -10 -4 -10
-6 -1 -6 6 -1 12 -9 12 -20 0 -10 7 -24 15 -31 8 -7 12 -16 9 -21 -3 -5 0 -9
6 -9 7 0 8 -6 0 -19 -7 -13 -7 -22 0 -26 5 -3 10 -14 10 -24 0 -10 7 -24 15
-31 9 -7 14 -19 11 -27 -3 -7 -1 -13 5 -13 6 0 9 -6 6 -14 -3 -7 0 -19 6 -26
9 -10 9 -11 0 -6 -21 12 -15 -9 10 -35 16 -18 23 -40 26 -79 3 -47 21 -87 33
-75 2 3 5 -17 7 -42 1 -26 8 -51 14 -55 9 -6 8 -8 -2 -8 -10 0 -8 -6 7 -21 12
-11 20 -24 17 -29 -3 -5 0 -12 6 -16 8 -4 8 -8 0 -13 -7 -5 -6 -15 4 -34 7
-15 11 -27 8 -27 -3 0 2 -11 11 -25 9 -13 16 -34 16 -45 0 -12 5 -31 11 -42 9
-16 8 -19 -2 -13 -14 9 -5 -9 17 -36 8 -8 15 -28 16 -42 1 -15 5 -27 9 -27 3
0 6 -7 6 -15 0 -8 -4 -15 -9 -15 -5 0 3 -12 17 -27 14 -16 24 -36 21 -46 -2
-9 1 -17 6 -17 6 0 5 -6 -2 -15 -9 -11 -9 -15 -1 -15 7 0 10 -4 6 -9 -3 -6 5
-19 17 -30 12 -12 19 -21 15 -21 -4 0 -3 -8 2 -18 7 -13 6 -23 -1 -30 -9 -9
-9 -12 1 -12 7 0 11 -6 8 -14 -3 -7 0 -19 6 -25 6 -6 7 -11 2 -11 -4 0 0 -9
10 -20 10 -11 14 -20 9 -20 -5 0 -2 -5 6 -11 12 -8 12 -12 2 -16 -10 -4 -9 -9
4 -24 11 -12 13 -19 5 -19 -8 0 -6 -10 7 -27 10 -16 17 -34 15 -40 -3 -7 1
-13 9 -13 11 0 11 -2 -1 -9 -9 -6 -10 -11 -2 -15 6 -4 11 -18 11 -32 0 -13 4
-24 8 -24 5 0 14 -12 20 -26 10 -20 10 -24 0 -18 -9 6 -9 3 1 -9 7 -9 10 -17
5 -17 -5 0 -2 -5 6 -10 10 -7 11 -10 2 -10 -9 0 -8 -8 4 -32 9 -18 20 -35 24
-38 11 -8 18 -60 9 -60 -12 0 2 -33 22 -51 12 -10 19 -33 20 -67 2 -29 6 -52
10 -52 5 0 6 -6 3 -14 -3 -7 2 -16 10 -19 10 -4 16 -19 16 -42 0 -20 5 -35 12
-35 9 0 9 -3 1 -11 -9 -9 -6 -17 8 -33 14 -14 19 -32 17 -54 -1 -18 2 -36 7
-40 6 -4 11 -16 13 -27 2 -11 9 -24 15 -30 7 -5 12 -20 11 -33 -1 -12 3 -22 9
-22 6 0 5 -5 -1 -13 -8 -10 -6 -22 10 -48 27 -44 39 -87 27 -91 -6 -2 1 -21
16 -41 14 -21 23 -43 20 -48 -4 -5 -1 -9 5 -9 7 0 8 -6 2 -18 -7 -12 -4 -26 9
-47 29 -47 38 -70 27 -73 -5 -2 -2 -15 8 -29 9 -14 11 -22 5 -19 -6 4 -11 2
-11 -3 0 -6 5 -11 12 -11 6 0 9 -3 5 -6 -3 -4 4 -15 16 -26 12 -11 17 -17 10
-14 -7 4 -11 -1 -10 -14 1 -11 5 -20 10 -20 5 0 7 -6 4 -14 -3 -8 -1 -17 6
-20 9 -3 9 -5 -1 -5 -9 -1 -8 -8 5 -29 10 -15 22 -30 28 -34 6 -5 4 -8 -5 -8
-9 0 -11 -3 -4 -8 14 -10 26 -42 15 -42 -5 0 -7 -9 -4 -20 3 -11 9 -20 14 -20
5 0 9 -5 9 -12 0 -6 7 -20 17 -30 9 -10 12 -18 6 -18 -16 0 -2 -64 18 -83 13
-12 19 -33 20 -62 2 -49 2 -52 13 -77 5 -10 12 -16 16 -13 4 3 10 -6 12 -20 3
-14 1 -25 -5 -25 -5 0 -5 -6 2 -13 6 -8 8 -17 4 -20 -3 -4 0 -7 7 -7 7 0 11
-3 7 -6 -3 -4 0 -19 8 -34 8 -15 15 -44 17 -64 1 -20 6 -36 10 -36 4 0 8 -9 8
-19 0 -10 8 -22 17 -25 15 -6 15 -8 3 -16 -11 -7 -12 -10 -2 -10 7 0 10 -4 7
-10 -3 -5 -1 -10 6 -10 8 0 9 -4 0 -13 -8 -10 -7 -17 1 -25 9 -9 9 -12 -2 -12
-10 -1 -9 -5 5 -13 19 -11 27 -27 28 -54 0 -7 4 -13 9 -13 4 0 7 -3 7 -7 -4
-24 4 -32 29 -31 32 1 59 17 64 39 2 8 10 21 18 29 8 8 16 29 16 45 2 41 8 60
22 77 6 8 9 18 5 21 -3 4 -2 7 4 7 6 0 9 9 6 20 -3 11 -1 20 5 20 12 0 10 33
-3 42 -6 5 -5 8 3 8 7 0 11 4 8 9 -3 5 1 12 10 15 9 4 14 9 11 12 -3 4 0 13 8
21 17 16 20 33 6 33 -12 0 -2 41 16 62 8 9 15 22 17 30 1 7 5 19 10 26 5 8 4
18 -2 24 -8 8 -2 24 19 54 16 24 25 44 20 44 -7 0 -7 8 -1 26 13 33 13 37 -2
28 -10 -6 -10 -5 -1 8 7 8 10 18 6 21 -3 4 2 7 12 7 10 0 15 3 12 7 -4 3 1 12
11 19 11 9 12 13 4 14 -10 0 -10 5 -1 21 8 16 8 23 -1 29 -9 6 -7 11 6 19 11
6 15 11 10 11 -5 0 1 11 14 25 13 14 18 25 11 25 -8 0 -9 5 -1 19 5 11 10 32
10 47 0 15 8 33 18 41 10 9 11 11 2 7 -11 -6 -10 -2 3 13 9 11 14 23 10 26 -3
4 -2 7 3 7 6 0 8 17 6 37 -3 27 0 40 13 49 11 9 20 31 22 61 3 26 10 53 16 58
13 11 20 30 21 58 0 9 4 17 9 17 4 0 5 5 2 10 -9 15 5 71 16 64 5 -3 9 2 9 10
0 9 4 16 8 16 10 0 9 30 -2 48 -4 7 -2 12 4 12 6 0 9 4 5 9 -3 5 -1 12 5 16 6
4 8 10 5 15 -3 4 2 11 11 14 8 3 12 10 9 16 -3 5 -1 10 5 10 6 0 9 4 6 9 -3 4
-1 22 4 40 6 22 5 31 -3 31 -7 0 -6 4 3 10 8 5 12 10 8 10 -5 0 1 9 12 20 12
12 18 25 15 30 -4 6 -1 10 6 10 8 0 8 4 -1 15 -7 9 -8 15 -2 15 5 0 8 9 5 20
-3 12 1 22 11 26 9 3 16 17 16 30 0 13 6 24 13 24 8 0 7 4 -3 10 -8 5 -10 10
-5 10 6 0 11 9 11 20 0 11 -5 20 -10 20 -5 0 2 10 16 22 14 13 24 31 23 40 -2
10 1 18 7 18 7 0 6 5 -1 14 -9 11 -9 16 0 21 8 6 8 9 -1 15 -9 6 -7 11 9 19
12 7 19 16 16 22 -4 5 -1 9 6 9 6 0 9 8 6 20 -3 11 -1 18 4 14 12 -7 11 3 -2
28 -8 15 -8 19 0 14 7 -5 11 1 11 14 0 12 7 28 15 37 8 8 13 19 10 24 -4 5 -2
9 4 9 6 0 8 7 5 15 -4 8 -1 15 5 15 9 0 9 5 1 20 -7 14 -7 20 0 20 5 0 9 3 8
8 -1 4 6 19 16 35 11 15 16 37 14 52 -3 13 0 26 6 29 7 3 6 5 -2 5 -8 1 -3 12
13 29 14 15 24 35 21 45 -2 9 -1 17 4 17 4 0 6 14 4 30 -2 20 1 33 11 36 8 4
13 10 10 14 -3 5 -1 11 5 15 6 4 8 11 5 16 -4 5 -2 9 3 9 5 0 7 13 4 28 -2 18
2 35 13 45 9 10 13 17 9 17 -3 0 -1 6 5 13 6 8 8 17 4 20 -3 4 -1 7 7 7 9 0
10 3 1 14 -9 11 -9 15 1 19 10 4 10 6 0 6 -10 1 -10 5 2 17 9 8 14 19 11 23
-2 5 5 18 16 29 13 15 15 22 7 22 -8 1 -5 7 6 15 11 8 15 15 10 15 -15 0 -10
43 8 68 8 12 18 19 22 14 5 -4 7 2 5 13 -2 11 0 26 4 33 5 7 3 12 -4 12 -8 0
-9 4 0 13 7 9 7 17 1 25 -6 7 -7 10 -4 7 4 -2 14 6 24 18 19 24 31 85 19 89
-5 2 5 23 22 48 17 24 26 46 20 48 -12 4 5 59 25 83 8 9 11 18 8 22 -3 3 -2
12 2 19 5 7 9 28 10 45 0 18 10 43 20 54 10 12 17 32 16 45 -2 15 2 24 10 24
10 0 9 3 -2 10 -13 9 -13 10 0 10 13 0 13 1 0 10 -10 6 -11 10 -2 10 6 0 12 5
12 11 0 6 7 18 16 26 8 9 13 24 11 34 -3 11 -1 19 4 19 6 0 7 6 1 17 -7 11 -6
21 2 29 32 37 37 46 32 60 -3 7 -1 14 5 14 6 0 6 7 -1 20 -8 14 -8 20 0 20 6
0 9 4 6 9 -3 4 2 16 12 24 11 10 19 33 20 57 2 22 12 56 24 75 11 20 18 44 15
55 -3 11 -2 20 3 20 4 0 7 8 7 18 -1 22 23 72 35 72 5 0 7 4 4 9 -4 5 -2 20 3
33 5 13 5 31 1 39 -9 16 1 42 16 39 5 0 10 8 12 20 2 11 9 20 15 20 7 0 6 4
-3 10 -8 5 -10 10 -5 10 6 0 11 9 11 20 0 11 -4 20 -8 20 -4 0 -5 7 -2 15 4 8
10 13 15 10 9 -6 33 32 34 55 0 8 -3 22 -7 31 -5 11 -2 22 7 29 20 16 46 70
34 70 -6 0 -4 10 2 23 7 12 11 22 9 22 -2 0 0 10 4 23 4 12 11 22 16 22 5 0 7
9 5 20 -2 11 1 20 7 20 7 0 6 5 -1 14 -9 10 -9 16 -1 21 6 4 9 13 6 21 -3 8
-1 14 4 14 6 0 10 7 10 16 0 9 5 12 13 8 6 -4 9 -4 5 1 -4 4 -2 15 5 23 10 13
9 14 -3 7 -13 -8 -13 -6 -1 8 7 10 12 31 9 51 -2 19 0 32 4 30 4 -3 8 0 8 5 0
6 6 11 13 11 9 0 13 11 12 30 -1 17 2 30 7 30 5 0 6 6 2 12 -11 17 -12 48 -2
42 4 -3 8 0 8 6 0 6 5 8 12 4 6 -4 8 -3 4 4 -3 6 1 17 9 25 11 12 12 17 2 20
-9 4 -8 6 2 6 11 1 11 4 0 18 -10 12 -11 15 -1 9 10 -6 11 -1 7 17 -5 18 -2
28 12 36 10 6 14 11 9 11 -5 0 -3 7 4 15 6 8 9 19 5 25 -3 5 -2 10 3 10 6 0 8
9 5 20 -3 11 0 20 6 20 5 0 8 7 5 15 -4 8 -1 15 7 15 7 0 9 3 6 7 -4 3 -2 12
4 19 6 8 9 21 5 29 -3 8 -1 15 3 15 5 0 7 10 3 22 -3 14 -1 19 6 14 7 -4 10 1
7 13 -2 11 3 22 11 25 9 3 12 10 9 16 -3 5 -2 10 4 10 6 0 8 7 4 16 -3 9 0 20
8 25 10 6 11 11 3 17 -8 5 -8 15 1 35 6 15 15 24 20 20 4 -5 5 0 2 9 -3 9 -1
18 5 20 12 4 17 50 6 58 -4 3 7 26 23 50 17 25 25 46 20 48 -7 2 -8 10 -1 21
5 10 6 21 2 25 -3 4 -2 10 4 14 15 11 45 62 36 62 -4 0 -8 9 -8 20 0 11 4 20
8 20 4 0 8 6 8 14 0 17 25 67 31 62 2 -3 4 7 4 20 0 13 -4 24 -9 24 -5 0 -3 6
3 13 6 8 8 17 4 20 -3 4 -1 7 6 7 7 0 10 4 7 9 -3 4 3 16 14 26 16 14 17 20 8
27 -9 5 -9 8 -1 8 6 0 10 11 8 25 -1 14 2 25 7 25 5 0 6 5 2 12 -4 6 1 17 11
25 11 7 15 13 11 13 -5 0 -3 7 4 15 7 8 10 24 7 35 -3 11 -1 20 3 20 4 0 6 9
3 20 -3 12 1 22 11 26 9 3 14 10 11 14 -3 5 -1 11 5 15 6 4 8 11 5 16 -4 5 -2
9 3 9 6 0 8 9 5 20 -3 11 -3 25 0 32 2 7 5 17 5 22 0 5 7 13 16 18 9 5 14 13
11 19 -4 5 -2 9 2 9 5 0 8 15 7 34 -1 19 5 45 14 58 9 13 18 34 20 48 2 13 8
30 14 37 8 10 7 13 -3 13 -11 0 -11 2 1 10 8 5 11 10 6 10 -4 0 -1 11 8 25 9
14 14 30 11 35 -3 6 -2 10 3 10 13 0 21 35 11 51 -9 15 8 52 20 45 4 -3 8 1 9
9 1 8 3 22 4 30 1 8 4 15 8 15 4 0 7 7 7 15 0 8 -5 15 -10 15 -5 0 -4 7 3 15
10 12 10 15 -1 15 -8 0 0 9 18 21 28 17 30 23 23 48 -4 16 -4 34 0 42 5 7 6
17 4 21 -3 4 2 8 10 8 8 0 18 5 22 12 5 7 3 8 -7 3 -9 -5 -8 -1 3 11 11 12 14
24 8 34 -5 10 2 36 21 75 16 33 26 68 23 78 -3 10 0 17 8 17 10 0 9 3 -2 10
-11 7 -11 10 -2 10 7 0 10 5 7 10 -3 6 1 13 9 16 9 3 14 10 11 14 -3 5 -1 11
4 14 5 3 8 19 7 36 -1 16 2 30 7 30 5 0 3 8 -4 17 -8 9 -9 14 -2 10 7 -4 14 1
18 13 3 11 10 20 15 20 4 0 7 14 6 30 -1 17 1 30 5 30 4 0 5 9 2 19 -3 12 4
29 17 43 11 13 19 31 16 40 -2 10 -1 18 4 18 4 0 5 10 3 23 -3 13 4 31 16 44
12 13 21 38 22 62 2 23 8 41 13 41 6 0 5 4 -2 8 -9 7 -8 13 8 27 11 10 20 26
20 36 0 10 5 21 11 25 8 4 7 9 -2 14 -10 7 -10 12 -1 23 7 7 9 17 5 20 -3 4
-1 7 6 7 7 0 10 4 6 9 -3 6 3 14 12 20 14 8 15 10 3 11 -13 0 -13 1 0 10 8 5
11 10 6 10 -5 0 -3 7 4 15 7 9 8 15 2 15 -12 0 -4 41 12 55 18 16 37 65 25 65
-6 0 -6 7 1 20 8 14 8 20 0 20 -6 0 2 16 17 35 29 36 35 56 20 66 -5 4 -1 18
8 33 10 14 14 26 9 26 -4 0 2 9 14 20 21 20 31 47 13 36 -10 -7 -9 20 2 30 4
4 7 15 7 24 0 10 7 23 15 30 9 7 13 15 11 18 -3 2 0 14 6 25 6 12 11 35 10 51
0 18 7 37 20 48 12 10 16 18 9 18 -8 0 -9 5 -2 18 5 9 11 33 12 52 2 19 12 43
22 52 10 11 17 33 17 58 0 26 8 51 21 70 13 17 20 37 16 49 -3 12 -1 21 4 21
4 0 6 6 3 14 -3 7 2 21 11 30 9 9 13 16 8 16 -4 0 -1 6 7 13 9 7 15 30 16 55
0 24 6 47 12 51 6 4 13 18 14 31 2 14 9 31 15 38 9 10 10 19 3 33 -8 13 -7 19
0 19 6 0 9 4 6 9 -3 5 1 14 9 21 8 7 15 22 15 35 0 12 3 25 8 29 9 10 10 30 0
36 -4 3 3 17 15 30 12 14 22 32 22 40 -1 8 3 21 8 28 6 8 5 12 -3 12 -10 0
-10 3 0 15 7 9 10 18 7 21 -2 3 6 17 19 31 19 20 22 29 12 36 -11 7 -11 10 0
14 10 4 10 8 1 19 -9 11 -9 14 0 14 7 0 9 5 6 10 -3 6 -1 10 5 10 6 0 9 4 6 9
-3 5 1 11 8 14 8 3 15 14 15 24 1 48 4 52 23 40 10 -7 13 -14 8 -15 -7 -3 -7
-9 1 -18 8 -10 8 -14 0 -14 -7 0 -8 -8 -1 -25 5 -14 6 -25 2 -25 -4 0 -5 -31
-2 -70 3 -38 2 -70 -2 -70 -3 0 -3 -13 2 -30 5 -17 5 -30 0 -30 -5 0 -5 -13 0
-30 5 -16 5 -30 2 -30 -4 0 -5 -31 -2 -70 3 -38 2 -70 -1 -70 -3 0 -3 -18 1
-40 4 -22 4 -40 0 -40 -4 0 -4 -18 0 -40 4 -22 4 -40 0 -40 -4 0 -4 -18 0 -40
4 -22 4 -40 1 -40 -3 0 -4 -31 -1 -70 3 -38 2 -70 -2 -70 -3 0 -3 -13 2 -30 5
-17 5 -30 0 -30 -5 0 -5 -13 0 -30 5 -16 5 -30 2 -30 -4 0 -5 -31 -2 -70 3
-38 2 -70 -1 -70 -3 0 -3 -18 1 -40 4 -22 4 -40 0 -40 -4 0 -4 -18 0 -40 4
-22 4 -40 0 -40 -4 0 -4 -18 0 -40 4 -22 4 -40 1 -40 -3 0 -4 -31 -1 -70 3
-38 2 -70 -2 -70 -3 0 -3 -13 2 -30 5 -17 5 -30 0 -30 -5 0 -5 -13 0 -30 5
-16 5 -30 2 -30 -4 0 -5 -31 -2 -70 3 -38 2 -70 -1 -70 -3 0 -3 -18 1 -40 4
-22 4 -40 0 -40 -4 0 -4 -18 0 -40 4 -22 4 -40 0 -40 -4 0 -4 -18 0 -40 4 -22
4 -40 1 -40 -3 0 -4 -31 -1 -70 3 -38 2 -70 -2 -70 -3 0 -3 -13 2 -30 5 -17 5
-30 0 -30 -5 0 -5 -13 0 -30 5 -16 5 -30 2 -30 -4 0 -5 -31 -2 -70 3 -38 2
-70 -1 -70 -3 0 -3 -18 1 -40 4 -22 4 -40 0 -40 -4 0 -4 -18 0 -40 4 -22 4
-40 0 -40 -4 0 -4 -18 0 -40 4 -22 4 -40 1 -40 -3 0 -4 -31 -1 -70 3 -38 2
-70 -2 -70 -3 0 -3 -13 2 -30 5 -17 5 -30 0 -30 -5 0 -5 -13 0 -30 5 -16 5
-30 2 -30 -4 0 -5 -31 -2 -70 3 -38 2 -70 -1 -70 -3 0 -3 -18 1 -40 4 -22 4
-40 0 -40 -4 0 -4 -18 0 -40 4 -22 4 -40 0 -40 -4 0 -4 -18 0 -40 4 -22 4 -40
1 -40 -3 0 -4 -31 -1 -70 3 -38 2 -70 -2 -70 -3 0 -3 -13 2 -30 5 -17 5 -30 0
-30 -5 0 -5 -13 0 -30 5 -16 5 -30 2 -30 -4 0 -5 -31 -2 -70 3 -38 2 -70 -1
-70 -3 0 -3 -18 1 -40 4 -22 4 -40 0 -40 -4 0 -4 -18 0 -40 4 -22 4 -40 0 -40
-4 0 -4 -18 0 -40 4 -22 4 -40 1 -40 -3 0 -4 -31 -1 -70 3 -38 2 -70 -2 -70
-3 0 -3 -13 2 -30 5 -17 5 -30 0 -30 -5 0 -5 -13 0 -30 5 -16 5 -30 2 -30 -4
0 -5 -31 -2 -70 3 -38 2 -70 -1 -70 -3 0 -3 -18 1 -40 4 -22 4 -40 0 -40 -4 0
-4 -18 0 -40 4 -22 4 -40 0 -40 -4 0 -4 -18 0 -40 4 -22 4 -40 1 -40 -3 0 -4
-31 -1 -70 3 -38 2 -70 -2 -70 -3 0 -3 -13 2 -30 5 -17 5 -30 0 -30 -5 0 -5
-13 0 -30 5 -16 5 -30 2 -30 -4 0 -5 -31 -2 -70 3 -38 2 -70 -1 -70 -3 0 -3
-18 1 -40 4 -22 4 -40 0 -40 -4 0 -4 -18 0 -40 4 -22 4 -40 0 -40 -4 0 -4 -18
0 -40 4 -22 4 -40 1 -40 -3 0 -4 -31 -1 -70 3 -38 2 -70 -2 -70 -3 0 -3 -13 2
-30 5 -17 5 -30 0 -30 -5 0 -5 -13 0 -30 5 -16 5 -30 2 -30 -4 0 -5 -31 -2
-70 3 -38 2 -70 -1 -70 -3 0 -3 -18 1 -40 4 -22 4 -40 0 -40 -4 0 -4 -18 0
-40 4 -22 4 -40 0 -40 -4 0 -4 -18 0 -40 4 -22 4 -40 1 -40 -3 0 -4 -31 -1
-70 3 -38 2 -70 -2 -70 -3 0 -3 -13 2 -30 5 -17 5 -30 0 -30 -5 0 -5 -13 0
-30 5 -16 5 -30 2 -30 -4 0 -5 -31 -2 -70 3 -38 2 -70 -1 -70 -3 0 -3 -18 1
-40 4 -22 4 -40 0 -40 -4 0 -4 -18 0 -40 4 -22 4 -40 0 -40 -4 0 -4 -18 0 -40
4 -22 4 -40 1 -40 -3 0 -4 -31 -1 -70 3 -38 2 -70 -2 -70 -3 0 -3 -13 2 -30 5
-17 5 -30 0 -30 -5 0 -5 -13 0 -30 5 -16 5 -30 2 -30 -4 0 -5 -31 -2 -70 3
-38 2 -70 -1 -70 -3 0 -3 -18 1 -40 4 -22 4 -40 0 -40 -4 0 -4 -18 0 -40 4
-22 4 -40 0 -40 -4 0 -4 -18 0 -40 4 -22 4 -40 1 -40 -3 0 -4 -31 -1 -70 3
-38 2 -70 -2 -70 -3 0 -3 -13 2 -30 5 -17 5 -30 0 -30 -5 0 -5 -13 0 -30 5
-16 5 -30 2 -30 -4 0 -5 -31 -2 -70 3 -38 2 -70 -1 -70 -3 0 -3 -18 1 -40 4
-22 4 -40 1 -40 -3 0 -4 -31 -1 -70 3 -38 2 -70 -2 -70 -3 0 -3 -13 2 -30 5
-17 5 -30 0 -30 -5 0 -5 -13 0 -30 5 -16 5 -30 2 -30 -4 0 -5 -31 -2 -70 3
-38 2 -70 -1 -70 -3 0 -3 -18 1 -40 4 -22 4 -40 1 -40 -3 0 -4 -31 -1 -70 3
-38 2 -70 -2 -70 -3 0 -3 -13 2 -30 5 -17 5 -30 0 -30 -5 0 -5 -13 0 -30 5
-16 5 -30 2 -30 -4 0 -5 -31 -2 -70 3 -38 2 -70 -1 -70 -3 0 -3 -18 1 -40 4
-22 4 -40 1 -40 -3 0 -4 -31 -1 -70 3 -38 2 -70 -2 -70 -3 0 -3 -13 2 -30 5
-17 5 -30 0 -30 -5 0 -5 -13 0 -30 5 -16 5 -30 1 -30 -4 0 -4 -27 -1 -60 3
-33 3 -60 -1 -60 -4 0 -4 -13 1 -30 5 -17 5 -30 0 -30 -5 0 -5 -13 0 -30 5
-19 5 -30 -1 -30 -6 0 -5 -8 1 -20 6 -12 7 -20 1 -20 -6 0 -6 -11 -1 -30 5
-17 5 -30 0 -30 -5 0 -5 -13 0 -30 5 -19 5 -30 -1 -30 -6 0 -5 -8 1 -20 6 -12
7 -20 1 -20 -6 0 -6 -11 -1 -30 5 -17 5 -30 0 -30 -5 0 -5 -13 0 -30 5 -19 5
-30 -1 -30 -6 0 -5 -8 1 -20 6 -12 7 -20 1 -20 -6 0 -6 -11 -1 -30 5 -17 5
-30 0 -30 -5 0 -5 -13 0 -30 5 -16 5 -30 1 -30 -4 0 -4 -27 -1 -60 3 -33 3
-60 -1 -60 -4 0 -4 -13 1 -30 5 -17 5 -30 0 -30 -5 0 -5 -13 0 -30 5 -16 5
-30 2 -30 -4 0 -5 -31 -2 -70 3 -38 2 -70 -1 -70 -3 0 -3 -18 1 -40 5 -27 4
-40 -4 -40 -6 0 -4 -5 4 -10 8 -5 10 -10 3 -10 -8 0 -8 -6 0 -25 7 -14 18 -23
25 -20 6 2 12 -2 12 -10 0 -14 25 -21 103 -28 20 -1 37 -1 37 3 0 3 36 3 80 0
44 -3 80 -3 80 0 0 3 36 3 80 0 44 -3 80 -3 80 0 0 3 36 3 80 0 44 -3 80 -3
80 0 0 3 36 3 80 0 44 -3 80 -3 80 0 0 3 36 3 80 0 44 -3 80 -3 80 0 0 3 36 3
80 0 44 -3 80 -3 80 0 0 3 23 3 50 2 37 -3 58 1 78 14 15 10 30 17 35 16 4 -1
7 3 7 9 0 5 4 8 9 5 4 -3 5 12 1 34 -4 22 -4 40 0 40 3 0 4 23 0 50 -4 28 -3
50 2 50 5 0 4 9 -2 20 -6 11 -7 20 -2 20 5 0 6 23 2 50 -4 28 -4 50 0 50 4 0
4 23 0 50 -4 28 -3 50 2 50 5 0 4 9 -2 20 -6 12 -7 20 -1 20 6 0 6 11 1 30 -5
17 -5 30 -1 30 5 0 5 18 1 40 -4 22 -4 40 0 40 4 0 4 18 0 40 -4 22 -4 40 0
40 4 0 4 18 0 40 -4 22 -4 40 0 40 4 0 4 18 0 40 -4 22 -4 40 0 40 4 0 4 18 0
40 -4 22 -4 40 0 40 4 0 4 18 0 40 -4 22 -4 40 0 40 4 0 4 18 0 40 -4 22 -4
40 -1 40 4 0 4 27 1 60 -3 33 -3 60 0 60 4 0 4 23 0 50 -4 28 -3 50 2 50 5 0
4 9 -2 20 -6 11 -7 20 -2 20 5 0 6 23 2 50 -4 28 -4 50 0 50 4 0 4 23 0 50 -4
28 -3 50 2 50 5 0 4 9 -2 20 -6 11 -7 20 -2 20 5 0 6 23 2 50 -4 28 -4 50 -1
50 3 0 4 36 1 80 -3 44 -2 80 1 80 3 0 3 23 -1 50 -4 28 -3 50 2 50 5 0 4 9
-2 20 -6 11 -7 20 -2 20 5 0 6 23 2 50 -4 28 -4 50 0 50 4 0 4 23 0 50 -4 28
-3 50 2 50 5 0 4 9 -2 20 -6 11 -7 20 -2 20 5 0 6 23 2 50 -4 28 -4 50 0 50 3
0 3 27 0 60 -3 33 -3 60 1 60 3 0 3 18 -1 40 -4 22 -4 40 0 40 4 0 4 18 0 40
-4 22 -4 40 0 40 4 0 4 18 0 40 -4 22 -4 40 0 40 4 0 4 18 0 40 -4 22 -4 40 0
40 4 0 4 18 0 40 -4 22 -4 40 0 40 4 0 4 18 0 40 -4 22 -4 40 0 40 4 0 4 18 0
40 -4 22 -4 40 1 40 4 0 4 14 -1 30 -5 19 -5 30 1 30 6 0 5 8 -1 20 -6 11 -7
20 -2 20 5 0 6 23 2 50 -4 28 -4 50 0 50 4 0 4 23 0 50 -4 28 -3 50 2 50 5 0
4 9 -2 20 -6 11 -7 20 -2 20 5 0 6 23 2 50 -4 28 -4 50 0 50 4 0 4 22 0 50 -4
28 -3 50 2 50 5 0 4 9 -2 20 -6 11 -7 20 -2 20 5 0 6 23 2 50 -4 27 -4 50 0
50 4 0 4 23 0 50 -4 28 -3 50 2 50 5 0 4 9 -2 20 -6 11 -7 20 -2 20 5 0 6 23
2 50 -4 28 -4 50 0 50 4 0 4 23 0 50 -4 28 -3 50 2 50 5 0 4 9 -2 20 -6 11 -7
20 -2 20 5 0 6 23 2 50 -4 28 -4 50 0 50 4 0 4 23 0 50 -4 28 -3 50 2 50 5 0
4 9 -2 20 -6 12 -7 20 -1 20 6 0 6 11 1 30 -5 17 -5 30 -1 30 5 0 5 18 1 40
-4 22 -4 40 0 40 4 0 4 18 0 40 -4 22 -4 40 0 40 4 0 4 18 0 40 -4 22 -4 40 0
40 4 0 4 18 0 40 -4 22 -4 40 0 40 4 0 4 18 0 40 -4 22 -4 40 0 40 4 0 4 18 0
40 -4 22 -4 40 0 40 4 0 4 18 0 40 -4 22 -4 40 0 40 4 0 4 18 0 40 -4 22 -4
40 0 40 4 0 4 18 0 40 -4 22 -4 40 0 40 4 0 4 18 0 40 -4 22 -4 40 0 40 4 0 4
18 0 40 -4 22 -4 40 0 40 4 0 4 18 0 40 -4 22 -4 40 0 40 4 0 4 18 0 40 -4 22
-4 40 0 40 4 0 4 18 0 40 -4 22 -4 40 0 40 4 0 4 18 0 40 -4 22 -4 40 1 40 4
0 4 14 -1 30 -5 19 -5 30 1 30 6 0 5 8 -1 20 -6 11 -7 20 -2 20 5 0 6 23 2 50
-4 28 -4 50 0 50 4 0 4 23 0 50 -4 28 -3 50 2 50 5 0 4 9 -2 20 -6 11 -7 20
-2 20 5 0 6 23 2 50 -4 28 -4 50 0 50 4 0 4 23 0 50 -4 28 -3 50 2 50 5 0 4 9
-2 20 -6 11 -7 20 -2 20 5 0 6 23 2 50 -4 28 -4 50 0 50 4 0 4 23 0 50 -4 28
-3 50 2 50 5 0 4 9 -2 20 -6 11 -7 20 -2 20 5 0 6 23 2 50 -4 28 -4 50 0 50 4
0 4 23 0 50 -4 28 -3 50 2 50 5 0 4 9 -2 20 -6 11 -7 20 -2 20 5 0 6 23 2 50
-4 28 -4 50 0 50 4 0 4 23 0 50 -4 28 -3 50 2 50 5 0 4 9 -2 20 -6 12 -7 20
-1 20 6 0 6 11 1 30 -5 17 -5 30 -1 30 5 0 5 18 1 40 -4 22 -4 40 0 40 4 0 4
18 0 40 -4 22 -4 40 0 40 4 0 4 18 0 40 -4 22 -4 40 0 40 4 0 4 18 0 40 -4 22
-4 40 0 40 4 0 4 18 0 40 -4 22 -4 40 0 40 4 0 4 18 0 40 -4 22 -4 40 0 40 4
0 4 18 0 40 -4 22 -4 40 0 40 4 0 4 18 0 40 -4 22 -4 40 0 40 4 0 4 18 0 40
-4 22 -4 40 0 40 4 0 4 18 0 40 -4 22 -4 40 0 40 4 0 4 18 0 40 -4 22 -4 40 0
40 4 0 4 18 0 40 -4 22 -4 40 0 40 4 0 4 18 0 40 -4 22 -4 40 0 40 4 0 4 18 0
40 -4 22 -4 40 0 40 4 0 4 18 0 40 -4 22 -4 40 1 40 4 0 4 14 -1 30 -5 19 -5
30 1 30 6 0 5 8 -1 20 -6 11 -7 20 -2 20 5 0 6 23 2 50 -4 28 -4 50 0 50 4 0
4 23 0 50 -4 28 -3 50 2 50 5 0 4 9 -2 20 -6 11 -7 20 -2 20 5 0 6 23 2 50 -4
28 -4 50 0 50 4 0 4 23 0 50 -4 28 -3 50 2 50 5 0 4 9 -2 20 -6 11 -7 20 -2
20 5 0 6 23 2 50 -4 28 -4 50 0 50 4 0 4 23 0 50 -4 28 -3 50 2 50 5 0 4 9 -2
20 -6 11 -7 20 -2 20 5 0 6 23 2 50 -4 28 -4 50 0 50 4 0 4 23 0 50 -4 28 -3
50 2 50 5 0 4 9 -2 20 -6 11 -7 20 -2 20 5 0 6 23 2 50 -4 28 -4 50 0 50 4 0
4 23 0 50 -4 28 -3 50 2 50 5 0 4 9 -2 20 -6 12 -7 20 -1 20 6 0 6 11 1 30 -5
17 -5 30 -1 30 5 0 5 18 1 40 -4 22 -4 40 0 40 4 0 4 18 0 40 -4 22 -4 40 0
40 4 0 4 18 0 40 -4 22 -4 40 0 40 4 0 4 18 0 40 -4 22 -4 40 0 40 4 0 4 18 0
40 -4 22 -4 40 0 40 4 0 4 18 0 40 -4 22 -4 40 0 40 4 0 4 18 0 40 -4 22 -4
40 0 40 4 0 4 18 0 40 -4 22 -4 40 0 40 4 0 4 18 0 40 -4 22 -4 40 0 40 4 0 4
18 0 40 -4 22 -4 40 0 40 4 0 4 18 0 40 -4 22 -4 40 0 40 4 0 4 18 0 40 -5 27
-4 40 4 40 6 0 4 5 -4 10 -8 5 -10 10 -4 10 14 0 13 32 -1 42 -6 5 -6 8 2 8 9
0 9 8 -1 31 -12 30 -46 60 -46 42 0 -4 -5 -1 -10 7 -9 13 -10 13 -10 0 0 -12
-2 -12 -8 -2 -7 9 -15 10 -35 3 -18 -7 -27 -7 -27 0 0 6 -7 6 -20 -1 -14 -8
-20 -8 -20 0 0 8 -6 8 -20 0 -14 -8 -20 -8 -20 0 0 8 -6 8 -20 0 -12 -6 -20
-7 -20 -1 0 5 -8 8 -17 6 -10 -2 -18 -4 -18 -5 0 -1 -8 -3 -18 -5 -9 -2 -15 1
-11 6 7 12 -3 11 -27 -1 -10 -6 -19 -7 -19 -2 0 5 -7 9 -15 9 -8 0 -15 -3 -15
-6 0 -3 -11 -6 -24 -6 -13 0 -22 3 -19 8 6 10 -5 9 -28 -3 -10 -6 -19 -7 -19
-2 0 5 -7 9 -15 9 -8 0 -15 -3 -15 -6 0 -3 -11 -6 -24 -6 -13 0 -22 3 -19 8 6
9 -1 9 -31 -3 -15 -5 -26 -6 -26 -1 0 5 -8 8 -17 6 -10 -2 -18 -4 -18 -5 0 -1
-8 -3 -18 -5 -9 -2 -15 1 -11 6 7 12 -3 11 -27 -1 -14 -8 -19 -7 -19 1 0 8 -4
8 -15 -1 -8 -7 -15 -8 -15 -3 0 5 -9 9 -20 9 -11 0 -20 -3 -20 -6 0 -3 -11 -5
-24 -5 -13 0 -22 3 -19 8 6 10 -5 9 -28 -3 -13 -7 -19 -7 -19 -1 0 7 -9 7 -25
1 -14 -5 -25 -6 -25 -1 0 5 -8 8 -17 6 -10 -2 -18 -4 -18 -5 0 -1 -8 -3 -18
-5 -9 -2 -15 1 -11 6 7 12 -3 11 -27 -1 -14 -8 -19 -7 -19 1 0 8 -4 8 -15 -1
-8 -7 -15 -8 -15 -3 0 5 -9 9 -20 9 -11 0 -20 -3 -20 -6 0 -3 -11 -5 -24 -5
-13 0 -22 3 -19 8 6 10 -5 9 -28 -3 -10 -6 -19 -7 -19 -2 0 5 -7 9 -15 9 -8 0
-15 -4 -15 -8 0 -4 -8 -5 -18 -2 -20 5 -77 -52 -67 -67 3 -4 -2 -11 -11 -14
-8 -3 -12 -10 -9 -16 3 -5 2 -10 -3 -10 -6 0 -9 -13 -8 -30 1 -16 -3 -30 -8
-30 -6 0 -4 -5 4 -10 8 -5 10 -10 5 -10 -6 0 -19 -14 -29 -31 -13 -22 -14 -29
-5 -24 12 8 12 6 1 -8 -8 -9 -11 -21 -7 -27 3 -5 0 -10 -7 -10 -9 0 -9 -3 2
-10 12 -8 12 -10 1 -10 -8 0 -11 -3 -8 -7 4 -3 -3 -18 -15 -31 -13 -14 -17
-22 -11 -18 9 5 11 2 7 -8 -3 -9 -10 -16 -14 -16 -5 0 -5 -13 0 -30 5 -18 5
-30 -1 -30 -5 0 -9 -7 -9 -16 0 -9 -5 -12 -12 -8 -6 4 -8 3 -4 -4 3 -6 0 -17
-7 -24 -10 -9 -12 -21 -6 -40 5 -17 4 -28 -2 -28 -6 0 -8 -4 -4 -10 3 -5 -3
-18 -15 -30 -11 -11 -17 -20 -12 -20 4 0 0 -5 -8 -10 -11 -7 -11 -10 -2 -10 9
0 10 -5 3 -19 -6 -10 -8 -21 -5 -23 8 -8 -28 -78 -40 -78 -6 0 -4 -5 4 -10 12
-7 12 -10 1 -10 -7 0 -11 -6 -8 -15 4 -8 2 -17 -3 -20 -6 -4 -10 -11 -10 -16
0 -6 5 -7 11 -3 8 4 8 0 0 -15 -7 -11 -15 -21 -19 -21 -4 0 -9 -14 -10 -32 -2
-18 -8 -36 -15 -40 -9 -6 -8 -10 3 -18 13 -9 13 -10 0 -10 -12 0 -12 -2 -2 -8
10 -7 6 -13 -13 -28 -26 -19 -35 -40 -12 -29 6 4 3 -1 -7 -9 -11 -9 -14 -16
-8 -16 10 0 10 -5 2 -20 -6 -12 -7 -20 -1 -20 5 0 7 -9 4 -20 -3 -10 -10 -18
-17 -17 -6 1 -10 -4 -9 -10 2 -7 -1 -13 -5 -13 -5 0 -9 -6 -9 -12 0 -7 -4 -22
-9 -32 -5 -14 -4 -17 4 -12 9 5 9 0 2 -19 -15 -39 -36 -66 -44 -58 -4 4 -3 -5
3 -20 6 -15 7 -27 3 -27 -4 0 -9 -12 -10 -27 -1 -16 -9 -33 -17 -39 -8 -6 -12
-14 -8 -17 3 -4 0 -7 -8 -7 -11 0 -11 -2 1 -10 8 -5 10 -10 4 -10 -6 0 -10
-15 -9 -35 1 -19 -3 -35 -7 -35 -5 0 -7 -4 -3 -9 3 -6 -3 -14 -12 -20 -10 -6
-13 -11 -8 -11 6 0 3 -5 -5 -10 -12 -8 -12 -10 -1 -10 11 0 11 -3 1 -15 -7 -8
-10 -22 -6 -30 3 -8 1 -15 -5 -15 -6 0 -7 -5 -4 -11 4 -5 -1 -19 -11 -30 -9
-10 -19 -40 -21 -66 -3 -27 -11 -53 -19 -59 -7 -6 -11 -14 -7 -17 3 -4 1 -7
-5 -7 -6 0 -9 -7 -6 -15 4 -8 1 -15 -5 -15 -9 0 -9 -5 -1 -20 8 -15 8 -20 -1
-20 -7 0 -9 -3 -6 -7 4 -3 2 -12 -4 -20 -9 -10 -8 -13 0 -13 7 0 9 -5 6 -10
-4 -6 -11 -8 -16 -5 -5 4 -9 -1 -9 -9 0 -9 -4 -16 -9 -16 -4 0 -6 -11 -4 -24
3 -13 0 -33 -6 -45 -9 -16 -9 -21 1 -21 7 0 2 -7 -10 -16 -12 -8 -22 -23 -22
-33 0 -9 -5 -22 -12 -29 -9 -9 -9 -12 1 -12 11 0 11 -3 1 -15 -10 -12 -10 -15
1 -15 10 -1 9 -4 -3 -14 -10 -7 -15 -16 -11 -19 3 -4 -1 -9 -10 -12 -9 -4 -14
-16 -12 -31 1 -13 -2 -24 -8 -24 -5 0 -5 -5 2 -13 8 -10 7 -17 -1 -25 -7 -7
-8 -12 -3 -12 5 0 2 -6 -7 -12 -20 -17 -41 -78 -26 -78 7 0 7 -4 -1 -13 -8
-10 -7 -17 1 -25 9 -9 9 -12 0 -13 -7 -1 -18 -2 -24 -3 -8 0 -13 -15 -13 -34
1 -17 -2 -32 -6 -32 -9 0 -6 -20 4 -37 4 -7 -4 -20 -19 -32 -15 -12 -24 -21
-20 -21 4 0 2 -9 -4 -19 -6 -13 -7 -22 0 -26 6 -4 4 -15 -6 -31 -13 -19 -14
-24 -3 -25 8 0 4 -5 -9 -11 -13 -6 -21 -17 -18 -24 3 -8 1 -16 -4 -19 -5 -3
-7 -14 -5 -25 2 -11 0 -20 -4 -20 -5 0 -6 -10 -4 -22 3 -14 -4 -32 -17 -46
-12 -13 -19 -30 -16 -38 3 -7 2 -14 -2 -14 -4 0 -7 -15 -6 -32 1 -18 -6 -38
-13 -44 -8 -5 -16 -22 -16 -37 -1 -15 -5 -27 -9 -27 -3 0 -4 -9 -1 -20 3 -11
0 -20 -6 -20 -6 0 -10 -3 -9 -7 1 -5 -3 -17 -9 -28 -5 -11 -9 -30 -8 -42 1
-13 -3 -23 -9 -23 -6 0 -4 -5 4 -10 10 -6 11 -10 3 -10 -7 0 -13 -3 -12 -7 2
-17 -14 -53 -23 -53 -6 0 -8 -9 -5 -20 3 -11 1 -20 -3 -20 -4 0 -6 -9 -3 -20
3 -12 0 -20 -6 -20 -7 0 -9 -5 -6 -11 4 -5 -1 -19 -10 -29 -9 -10 -14 -24 -10
-29 3 -6 2 -11 -3 -11 -14 0 -22 -38 -8 -44 8 -3 7 -5 -1 -5 -7 -1 -10 -7 -7
-14 3 -8 -2 -20 -10 -27 -9 -7 -13 -16 -10 -21 3 -5 1 -9 -4 -9 -5 0 -9 -6 -9
-12 0 -7 -4 -21 -8 -30 -4 -10 -3 -18 2 -18 5 0 10 -7 10 -15 0 -8 -3 -12 -7
-10 -4 2 -13 -8 -20 -23 -7 -15 -16 -35 -21 -44 -6 -12 -5 -18 3 -18 9 0 9 -3
1 -11 -6 -6 -9 -18 -6 -25 3 -8 0 -14 -7 -14 -6 0 -9 -4 -5 -9 3 -5 0 -15 -7
-23 -7 -7 -14 -18 -15 -23 -1 -6 -5 -19 -9 -29 -5 -14 -4 -17 5 -12 19 12 9
-15 -22 -59 -15 -22 -23 -41 -18 -43 11 -4 -17 -91 -36 -110 -16 -17 -17 -32
-1 -32 6 0 4 -8 -6 -19 -11 -12 -13 -20 -6 -23 7 -2 4 -12 -9 -27 -11 -13 -18
-27 -16 -31 3 -4 -1 -10 -9 -13 -10 -4 -12 -16 -6 -46 4 -22 4 -38 -1 -36 -4
3 -13 -11 -20 -30 -7 -19 -16 -35 -19 -35 -3 0 -4 -18 -2 -40 3 -25 0 -40 -7
-40 -6 0 -11 -7 -11 -15 0 -8 -5 -15 -11 -15 -7 0 -10 -17 -7 -45 2 -32 -1
-46 -11 -50 -8 -3 -11 -8 -8 -11 3 -4 -1 -13 -9 -22 -9 -8 -14 -25 -11 -39 2
-12 1 -23 -4 -23 -4 0 -6 -11 -5 -25 2 -13 -2 -23 -8 -22 -6 1 -10 -4 -8 -10
1 -7 -2 -13 -6 -13 -5 0 -9 -7 -10 -15 -1 -8 -3 -22 -4 -30 -1 -8 -6 -15 -11
-15 -5 0 -4 -7 3 -15 10 -12 10 -15 0 -15 -10 0 -10 -3 -1 -14 10 -11 9 -16
-5 -24 -18 -10 -48 -72 -35 -72 4 0 8 -7 8 -15 0 -8 -4 -15 -9 -15 -5 0 -7 -4
-3 -9 3 -5 0 -13 -5 -16 -22 -13 -46 -95 -29 -95 5 0 -5 -21 -22 -47 -17 -27
-25 -49 -19 -51 8 -3 7 -8 -1 -18 -9 -11 -9 -14 1 -14 10 0 10 -3 0 -15 -7 -8
-9 -15 -4 -15 4 0 -3 -11 -16 -25 -13 -14 -20 -25 -16 -25 5 0 3 -6 -3 -14 -9
-10 -9 -16 -1 -21 8 -5 8 -11 0 -20 -7 -8 -9 -19 -5 -25 3 -5 1 -10 -4 -10 -6
0 -11 -7 -11 -16 0 -9 -5 -12 -12 -8 -6 4 -8 3 -4 -4 3 -6 2 -13 -2 -16 -5 -3
-8 -17 -7 -31 2 -14 -2 -25 -8 -25 -7 0 -5 -5 3 -10 11 -7 11 -10 2 -10 -7 0
-11 -4 -7 -9 3 -6 -1 -13 -9 -18 -8 -4 -15 -12 -17 -18 -1 -5 -4 -16 -6 -23
-3 -7 -3 -26 -1 -42 3 -17 1 -30 -4 -30 -5 0 -7 -4 -4 -9 3 -4 -3 -16 -14 -26
-14 -12 -20 -31 -20 -58 0 -23 -9 -54 -21 -73 -11 -19 -18 -38 -14 -44 3 -5 0
-10 -7 -10 -9 0 -9 -3 2 -10 8 -5 10 -10 3 -10 -6 0 -9 -8 -7 -17 3 -10 -6
-30 -19 -44 -18 -19 -22 -30 -15 -42 6 -11 5 -17 -1 -17 -5 0 -7 -10 -3 -22 3
-13 1 -19 -6 -15 -6 4 -9 0 -8 -10 2 -10 -3 -24 -11 -31 -7 -7 -14 -23 -15
-35 -1 -21 -4 -37 -8 -47 -1 -3 -4 -16 -6 -30 -3 -14 -9 -26 -14 -28 -6 -2
-10 -12 -10 -22 0 -10 -6 -21 -12 -23 -9 -4 -9 -8 -3 -14 6 -4 10 -15 10 -23
0 -8 -4 -20 -10 -27 -22 -27 -30 -39 -32 -48 -1 -6 -5 -19 -9 -29 -5 -13 -4
-17 3 -13 17 10 10 -16 -12 -49 -11 -16 -20 -32 -20 -36 0 -3 -3 -10 -7 -14
-10 -10 -10 -27 0 -21 4 3 7 -6 7 -19 0 -13 -2 -24 -5 -24 -3 0 -11 -14 -18
-30 -8 -17 -17 -28 -20 -26 -4 2 -7 -7 -7 -20 0 -13 3 -24 7 -24 3 0 4 -9 1
-20 -3 -11 -10 -20 -15 -20 -5 0 -6 -5 -3 -10 3 -6 -1 -13 -9 -16 -9 -3 -13
-10 -10 -15 3 -5 -1 -9 -8 -9 -10 0 -10 -2 1 -9 9 -6 10 -11 2 -15 -6 -4 -9
-12 -6 -17 4 -5 2 -9 -3 -9 -6 0 -8 -10 -5 -21 4 -13 0 -27 -8 -33 -14 -11
-21 -29 -22 -53 0 -7 -5 -13 -11 -13 -6 0 -4 -5 4 -10 8 -5 10 -10 4 -10 -6 0
-9 -10 -7 -23 3 -14 -4 -32 -19 -48 -19 -20 -22 -32 -17 -57 4 -18 3 -32 -2
-32 -5 0 -9 -6 -9 -14 0 -7 -6 -19 -14 -25 -8 -7 -13 -23 -11 -36 1 -14 -1
-25 -5 -25 -4 0 -7 -8 -7 -17 1 -24 -24 -73 -36 -73 -5 0 -4 -7 3 -15 8 -10 9
-15 2 -15 -6 0 -9 -6 -6 -14 6 -15 -26 -96 -38 -96 -4 0 -5 -7 -2 -15 3 -8 2
-20 -2 -27 -11 -17 -12 -48 -2 -48 4 0 -6 -13 -24 -30 -17 -16 -26 -30 -20
-30 7 0 8 -10 2 -29 -5 -17 -4 -33 2 -39 6 -6 0 -15 -17 -26 -14 -9 -23 -21
-20 -26 3 -4 -1 -11 -7 -13 -10 -4 -9 -6 1 -6 11 -1 11 -4 1 -16 -10 -12 -10
-15 0 -15 10 0 10 -3 0 -15 -7 -8 -9 -15 -5 -15 5 0 2 -8 -6 -17 -30 -38 -38
-60 -26 -72 6 -6 7 -11 1 -11 -5 0 -10 -9 -11 -20 -1 -11 -11 -34 -23 -50 -12
-17 -16 -30 -10 -30 8 0 8 -6 0 -20 -8 -14 -8 -20 0 -20 6 0 -3 -21 -21 -47
-18 -25 -26 -42 -18 -38 11 7 12 6 2 -6 -6 -8 -13 -25 -15 -38 -1 -14 -7 -26
-13 -28 -10 -3 -50 56 -47 70 1 4 -4 7 -10 7 -9 0 -8 4 2 10 12 8 12 10 1 10
-10 0 -11 3 -2 14 8 10 9 16 1 21 -6 3 -8 11 -5 16 4 5 2 9 -4 9 -6 0 -7 7 -4
17 4 11 3 14 -5 9 -11 -6 -17 5 -13 27 0 4 -4 7 -10 7 -8 0 -8 5 1 15 7 9 8
15 2 15 -6 0 -9 11 -7 25 1 14 -1 25 -6 25 -14 0 -38 59 -25 64 7 3 7 5 -1 5
-8 1 -13 15 -13 36 0 19 -4 35 -10 35 -5 0 -10 6 -10 14 0 8 -4 16 -9 18 -6 2
-11 24 -12 50 -2 27 -6 48 -11 48 -4 0 -8 7 -8 15 0 8 -5 15 -11 15 -5 0 -8 4
-5 9 4 5 0 12 -6 14 -7 3 -8 6 -3 6 14 1 6 71 -8 71 -6 0 -7 3 -4 7 4 3 -3 17
-15 30 -15 16 -17 23 -7 23 12 0 11 2 -1 10 -10 6 -11 10 -3 10 9 0 10 7 3 25
-5 14 -7 25 -4 25 3 0 -1 7 -8 15 -38 42 -42 49 -31 52 8 3 9 12 3 29 -5 13
-6 24 -2 24 4 0 0 5 -8 10 -11 7 -11 10 -2 10 8 0 5 8 -8 22 -11 12 -20 32
-20 45 0 13 -5 23 -10 23 -7 0 -7 6 0 20 7 14 7 20 0 20 -5 0 -10 6 -10 14 0
7 -7 19 -15 26 -9 7 -14 19 -11 27 3 7 2 13 -2 13 -4 0 -8 9 -8 20 0 11 5 20
10 20 5 0 1 9 -9 20 -10 11 -14 20 -10 20 5 0 1 6 -10 13 -10 8 -15 19 -11 25
4 7 2 12 -5 12 -8 0 -8 4 -2 13 12 14 -11 77 -28 77 -6 0 -8 9 -4 20 4 12 2
20 -5 20 -8 0 -8 6 0 20 8 14 8 20 0 20 -6 0 -9 3 -7 8 7 11 -29 72 -38 64 -4
-4 -2 4 5 17 7 13 8 26 3 30 -5 3 -10 17 -10 30 -1 13 -9 31 -17 40 -9 10 -13
21 -9 24 3 4 2 7 -4 7 -6 0 -10 18 -10 41 0 22 -4 44 -9 47 -14 11 -36 53 -30
59 3 3 1 14 -4 24 -7 12 -6 19 3 22 9 4 9 6 -1 6 -7 1 -10 6 -7 11 3 6 3 10
-2 10 -9 0 -28 41 -36 78 -3 12 0 22 5 22 6 0 5 6 -2 15 -7 8 -9 15 -5 15 5 0
-2 9 -14 19 -13 11 -20 24 -17 30 3 5 0 12 -6 14 -9 4 -9 6 -2 6 18 1 0 65
-25 92 -13 14 -17 25 -11 27 8 3 7 8 -1 18 -9 11 -8 14 2 14 11 0 11 2 -1 10
-8 5 -11 10 -6 10 5 0 3 7 -4 15 -10 12 -10 15 1 15 9 1 6 5 -6 13 -20 12 -25
22 -29 62 -1 12 -6 27 -11 34 -6 10 -4 12 5 6 8 -5 3 7 -10 26 -14 19 -24 40
-22 46 2 7 -2 13 -9 13 -8 0 -8 4 1 15 7 8 8 15 4 15 -5 0 -10 14 -10 31 -1
18 -9 36 -17 41 -9 4 -14 17 -12 28 2 11 -2 20 -8 20 -8 0 -8 3 2 9 9 6 10 11
2 15 -6 4 -11 16 -11 26 0 11 -9 28 -21 39 -14 13 -17 21 -9 26 9 6 9 10 -1
16 -11 7 -11 9 -1 9 10 0 10 5 2 20 -6 11 -8 20 -4 20 4 0 -2 10 -14 23 -12
13 -19 27 -15 30 3 4 1 7 -7 7 -9 0 -9 4 -2 13 7 8 6 18 -4 31 -11 16 -11 21
-1 28 9 6 9 8 -1 8 -7 0 -10 5 -7 10 8 13 -20 41 -31 32 -5 -4 -2 1 5 11 10
12 10 17 1 17 -7 0 -10 13 -9 35 3 24 -3 42 -19 60 -12 14 -19 25 -16 25 4 0
1 7 -6 15 -10 12 -10 15 1 15 11 0 11 2 -1 10 -12 8 -12 10 -1 10 11 0 9 5 -5
22 -12 14 -14 18 -4 13 8 -4 5 3 -6 16 -23 25 -37 79 -22 79 5 0 6 6 1 13 -4
6 -8 18 -10 26 -1 8 -6 17 -12 20 -17 11 -32 61 -18 61 8 0 7 4 -3 10 -10 7
-11 10 -2 10 9 0 8 7 -4 25 -9 14 -14 25 -10 25 3 0 -4 10 -15 21 -17 17 -19
23 -8 30 12 7 11 9 -1 9 -12 0 -12 2 -1 9 9 6 10 11 2 15 -6 4 -9 12 -6 17 4
5 1 9 -5 9 -6 0 -8 5 -5 10 3 6 1 10 -5 10 -6 0 -9 4 -5 9 3 5 -1 15 -8 23 -7
7 -12 25 -12 41 1 15 -3 27 -7 27 -5 0 -8 6 -7 13 3 25 -1 38 -11 32 -9 -6
-15 16 -11 39 1 5 -4 13 -11 17 -10 6 -10 11 -1 20 9 9 9 17 1 33 -16 30 -34
46 -43 38 -4 -4 -3 3 4 15 8 15 8 24 1 28 -8 5 -7 11 1 21 8 10 8 14 0 14 -6
0 -11 8 -11 18 0 10 -10 28 -21 41 -14 15 -18 26 -12 32 12 12 -6 70 -30 97
-9 10 -14 22 -10 26 11 10 12 36 2 36 -5 0 -9 9 -9 21 0 11 -7 27 -15 35 -8 8
-12 21 -9 29 4 8 2 15 -4 15 -5 0 -13 7 -16 16 -3 9 -2 12 5 9 17 -11 -2 48
-23 71 -15 17 -16 23 -6 27 10 4 10 6 1 6 -8 1 -13 16 -13 41 0 26 -7 48 -19
61 -22 24 -33 69 -17 69 6 0 4 5 -4 10 -11 7 -11 10 -2 10 8 0 4 12 -12 33
-16 20 -26 48 -27 75 -2 23 -6 42 -10 42 -4 0 -6 8 -5 18 0 9 -5 16 -11 15 -9
-2 -13 11 -13 42 0 44 -10 70 -40 109 -9 12 -10 16 -2 12 6 -4 12 -2 12 3 0 6
-5 11 -11 11 -6 0 -9 7 -5 15 3 8 1 15 -5 15 -6 0 -7 6 0 17 7 13 4 22 -11 35
-12 10 -18 18 -13 18 4 0 2 7 -5 15 -7 8 -10 22 -6 30 3 8 0 15 -7 15 -8 0 -8
3 2 9 9 6 10 11 2 15 -6 4 -9 11 -6 16 3 5 1 11 -5 15 -6 4 -7 11 -4 17 5 7 1
9 -9 5 -16 -6 -23 10 -17 38 7 31 6 54 -1 49 -5 -3 -9 2 -9 10 0 24 -2 29 -22
50 -12 14 -14 22 -7 27 8 5 8 8 0 13 -6 4 -11 19 -11 33 0 13 -9 36 -20 50
-15 19 -17 29 -10 39 8 8 8 14 0 19 -5 3 -10 16 -10 27 0 12 -10 32 -22 45
-13 14 -17 23 -9 23 10 0 11 3 2 14 -15 18 -23 59 -10 51 5 -4 9 -1 9 4 0 6
-4 11 -10 11 -14 0 -39 61 -41 105 -2 26 -11 49 -28 68 -13 15 -20 27 -14 27
8 0 9 9 3 29 -4 16 -6 32 -3 35 3 2 -4 15 -16 27 -12 13 -21 36 -21 54 0 17
-5 36 -12 43 -9 9 -9 12 2 12 9 0 3 11 -14 29 -15 16 -23 30 -18 32 7 3 6 18
-3 42 -7 20 -9 37 -4 37 4 0 -4 12 -18 26 -19 19 -23 28 -13 34 9 5 9 9 1 14
-6 4 -9 12 -6 17 4 5 2 9 -3 9 -5 0 -8 14 -6 31 2 17 0 27 -6 24 -11 -7 -33
32 -25 45 3 6 1 10 -5 10 -6 0 -8 5 -3 13 11 18 13 37 3 37 -5 0 -10 10 -12
23 -2 12 -9 21 -16 19 -8 -1 -11 2 -8 7 4 5 1 11 -6 13 -7 3 -8 9 -3 19 14 21
15 39 3 39 -6 0 -8 7 -4 15 3 8 -4 23 -15 33 -13 13 -17 25 -13 37 6 14 4 16
-7 10 -12 -8 -12 -6 0 8 8 10 9 17 3 17 -6 0 -12 15 -14 33 -2 20 -8 31 -16
29 -10 -2 -11 4 -7 19 5 14 3 19 -3 15 -11 -7 -11 12 1 32 5 7 3 12 -3 12 -7
0 -10 6 -7 13 2 6 -4 24 -15 39 -11 16 -16 32 -13 38 3 5 1 10 -4 10 -6 0 -11
17 -11 38 0 26 -7 45 -20 57 -11 10 -18 20 -15 23 2 3 0 13 -6 23 -6 13 -6 19
0 19 14 0 1 32 -21 51 -10 9 -18 29 -18 45 0 17 -9 37 -20 47 -17 14 -21 24
-20 52 0 3 -10 16 -23 28 -13 12 -22 28 -20 35 3 6 0 12 -6 12 -6 0 -11 5 -11
11 0 6 -6 16 -12 23 -7 8 -20 24 -28 36 -8 12 -20 28 -27 35 -7 7 -9 15 -6 19
3 3 -2 8 -11 12 -9 3 -16 12 -16 20 0 7 -9 19 -20 27 -11 8 -17 17 -13 20 3 4
-2 7 -12 7 -10 0 -16 3 -12 6 9 10 -17 32 -31 27 -7 -3 -12 -2 -11 3 4 17 -13
44 -29 44 -8 0 -13 3 -9 6 8 8 -18 34 -34 34 -7 0 -10 3 -6 6 7 8 -17 34 -32
34 -6 0 -11 4 -11 10 0 5 -16 20 -35 33 -19 13 -32 27 -27 32 4 5 2 5 -4 2
-11 -7 -67 26 -59 35 3 3 -8 8 -25 11 -18 4 -30 13 -30 22 0 10 -10 15 -28 15
-18 0 -34 9 -46 25 -11 14 -24 24 -30 22 -15 -6 -39 20 -26 28 6 3 15 3 20 0
6 -3 10 0 10 7 0 9 3 9 10 -2 5 -8 10 -10 10 -4 0 7 17 8 50 4 28 -4 50 -3 50
2 0 5 9 4 20 -2 11 -6 20 -7 20 -2 0 5 23 6 50 2 28 -4 50 -4 50 0 0 4 23 4
50 0 28 -4 50 -3 50 2 0 5 9 4 20 -2 11 -6 20 -7 20 -2 0 5 23 6 50 2 28 -4
50 -4 50 0 0 4 13 5 28 2 18 -2 35 2 45 12 8 9 21 16 28 16 7 0 9 3 6 7 -4 3
-2 12 4 19 8 10 2 22 -24 49 -24 24 -37 32 -40 23 -4 -10 -6 -10 -6 0 -1 10
-6 10 -21 2 -14 -8 -20 -8 -20 0 0 8 -6 8 -20 0 -14 -8 -20 -8 -20 0 0 8 -6 8
-20 0 -12 -6 -20 -7 -20 -1 0 5 -8 8 -17 6 -10 -2 -18 -4 -18 -5 0 -1 -8 -3
-18 -5 -9 -2 -15 1 -11 6 7 12 -3 11 -27 -1 -10 -6 -19 -7 -19 -2 0 5 -7 9
-15 9 -8 0 -15 -3 -15 -6 0 -3 -11 -6 -24 -6 -13 0 -22 3 -19 8 6 10 -5 9 -28
-3 -10 -6 -19 -7 -19 -2 0 5 -7 9 -15 9 -8 0 -15 -3 -15 -6 0 -3 -11 -6 -24
-6 -13 0 -22 3 -19 8 6 9 -1 9 -31 -3 -17 -6 -26 -6 -26 1 0 6 -7 6 -20 -1
-14 -8 -20 -8 -20 0 0 8 -6 8 -20 0 -14 -8 -20 -8 -20 0 0 8 -6 8 -20 0 -12
-6 -20 -7 -20 -1 0 5 -8 8 -17 6 -10 -2 -18 -4 -18 -5 0 -1 -8 -3 -18 -5 -9
-2 -15 1 -11 6 7 12 -3 11 -27 -1 -10 -6 -19 -7 -19 -2 0 5 -7 9 -15 9 -8 0
-15 -3 -15 -6 0 -3 -11 -6 -24 -6 -13 0 -22 3 -19 8 6 10 -5 9 -28 -3 -10 -6
-19 -7 -19 -2 0 5 -7 9 -15 9 -8 0 -15 -3 -15 -6 0 -3 -11 -6 -24 -6 -13 0
-22 3 -19 8 6 9 -1 9 -31 -3 -17 -6 -26 -6 -26 1 0 6 -7 6 -20 -1 -14 -8 -20
-8 -20 0 0 8 -6 8 -20 0 -14 -8 -20 -8 -20 0 0 8 -6 8 -20 0 -12 -6 -20 -7
-20 -1 0 5 -8 8 -17 6 -10 -2 -18 -4 -18 -5 0 -1 -8 -3 -18 -5 -9 -2 -15 1
-11 6 7 12 -3 11 -27 -1 -10 -6 -19 -7 -19 -2 0 5 -7 9 -15 9 -8 0 -15 -3 -15
-6 0 -3 -11 -6 -24 -6 -13 0 -22 3 -19 8 6 10 -5 9 -28 -3 -10 -6 -19 -7 -19
-2 0 5 -7 9 -15 9 -8 0 -15 -3 -15 -6 0 -3 -11 -6 -24 -6 -13 0 -22 3 -19 8 5
9 -6 8 -34 -3z"/>
<path d="M2716 12492 c-4 -7 -12 -10 -17 -7 -5 4 -9 2 -9 -3 0 -6 -8 -9 -17
-8 -15 1 -18 -7 -18 -47 0 -26 -3 -47 -7 -47 -11 0 5 -45 23 -62 13 -13 19
-14 22 -5 4 8 6 8 6 -2 1 -11 4 -11 16 -1 12 10 15 10 15 0 0 -10 3 -10 15 0
12 10 15 10 15 0 0 -10 3 -10 15 0 12 10 15 10 15 -1 0 -11 2 -11 10 1 7 11
10 11 10 2 0 -10 5 -10 20 -2 13 7 20 7 20 1 0 -7 9 -7 25 -1 14 5 25 6 25 1
0 -12 33 -9 42 4 5 6 8 5 8 -2 0 -7 5 -13 11 -13 5 0 7 5 3 11 -5 8 -1 8 14 0
15 -8 22 -8 25 2 4 9 6 8 6 -2 1 -11 4 -11 16 -1 12 10 15 10 15 0 0 -10 3
-10 15 0 12 10 15 10 15 0 0 -10 3 -10 15 0 8 7 15 9 15 4 0 -11 51 -10 68 0
7 4 12 2 12 -3 0 -6 1 -14 2 -18 1 -5 5 -23 9 -40 4 -18 3 -33 -1 -33 -5 0 -5
-13 0 -30 5 -17 5 -30 0 -30 -5 0 -5 -13 0 -30 5 -17 5 -30 0 -30 -5 0 -5 -13
0 -30 5 -17 5 -30 0 -30 -5 0 -5 -13 0 -30 5 -17 5 -30 0 -30 -5 0 -5 -13 0
-30 5 -17 5 -30 0 -30 -5 0 -5 -13 0 -30 5 -17 5 -30 0 -30 -5 0 -5 -13 0 -30
5 -17 5 -30 0 -30 -5 0 -5 -13 0 -30 5 -17 5 -30 0 -30 -5 0 -5 -13 0 -29 6
-21 5 -31 -3 -35 -9 -3 -8 -5 1 -5 8 -1 6 -7 -5 -19 -14 -14 -25 -16 -45 -11
-16 4 -28 4 -28 -1 0 -5 -13 -5 -30 0 -19 5 -30 5 -30 -1 0 -6 -8 -5 -20 1
-12 6 -20 7 -20 1 0 -6 -11 -6 -30 -1 -17 5 -30 5 -30 0 0 -5 -13 -5 -30 0
-19 5 -30 5 -30 -1 0 -6 -8 -5 -20 1 -12 6 -20 7 -20 1 0 -6 -11 -6 -30 -1
-17 5 -30 5 -30 0 0 -5 -13 -5 -30 0 -18 5 -30 5 -30 -1 0 -5 -3 -8 -7 -7 -5
1 -23 -6 -41 -16 -25 -13 -33 -23 -29 -37 3 -10 1 -19 -3 -19 -5 0 -5 -13 0
-30 6 -21 5 -30 -3 -30 -8 0 -8 -3 1 -9 8 -4 13 -10 12 -12 -8 -21 37 -55 65
-49 30 6 67 5 71 -2 3 -5 12 -4 20 3 11 9 14 9 14 -1 0 -10 3 -10 15 0 10 8
15 9 15 1 0 -7 8 -8 26 -1 14 6 23 6 20 2 -6 -10 36 -8 52 2 7 4 12 3 12 -2 0
-10 30 -9 48 2 7 4 12 2 12 -4 0 -6 5 -8 11 -5 16 11 70 12 75 3 3 -5 12 -4
20 3 11 9 14 9 14 -1 0 -10 3 -10 15 0 12 10 15 10 15 0 0 -10 3 -10 15 0 12
10 15 10 15 0 0 -10 3 -10 15 0 12 10 15 10 15 0 0 -10 3 -10 15 0 11 9 15 9
15 1 0 -8 6 -9 18 -3 9 5 26 6 37 2 11 -4 26 -3 33 2 7 7 12 7 12 1 0 -11 29
-11 48 1 7 4 12 2 12 -6 0 -9 3 -9 10 2 7 11 10 11 10 2 0 -10 5 -10 20 -2 13
7 20 7 20 1 0 -7 9 -7 25 -1 14 5 25 6 25 1 0 -12 33 -9 42 4 5 6 8 5 8 -3 0
-10 5 -10 20 -2 15 8 20 8 20 -1 0 -8 4 -8 15 1 12 10 15 10 15 0 0 -10 3 -10
15 0 12 10 15 10 15 0 0 -10 3 -10 15 0 12 10 15 10 15 0 0 -10 3 -10 15 0 11
9 15 9 15 1 0 -8 5 -9 17 -2 9 5 26 6 37 1 20 -7 66 3 66 15 0 4 -6 3 -12 0
-7 -4 -5 0 5 8 14 11 15 16 5 20 -10 4 -10 6 0 6 10 1 10 6 2 21 -8 14 -8 20
0 20 8 0 8 6 0 20 -6 11 -7 20 -2 20 15 0 1 52 -20 74 -10 11 -18 15 -18 9 0
-8 -9 -9 -30 -3 -16 5 -30 5 -30 2 0 -4 -31 -5 -70 -2 -38 3 -70 2 -70 -1 0
-3 -18 -3 -40 1 -22 4 -40 4 -40 1 0 -3 -31 -4 -70 -1 -38 3 -70 2 -70 -2 0
-3 -13 -3 -30 2 -16 5 -30 5 -30 1 0 -4 -13 -6 -29 -3 -28 4 -28 5 -30 75 -1
39 -4 74 -7 79 -3 4 -1 8 5 8 6 0 6 11 1 30 -5 17 -5 30 0 30 5 0 5 13 0 30
-5 17 -5 30 -2 30 4 0 5 32 2 70 -3 39 -2 70 1 70 3 0 3 18 -1 40 -4 22 -5 40
-1 40 3 0 5 36 4 80 -1 70 1 81 18 90 13 7 19 7 19 1 0 -7 9 -7 25 -1 14 5 25
6 25 1 0 -12 33 -9 42 4 5 6 8 5 8 -2 0 -7 5 -13 11 -13 5 0 7 5 3 11 -5 8 -1
8 14 0 15 -8 22 -8 25 2 4 9 6 8 6 -2 1 -11 4 -11 16 -1 12 10 15 10 15 0 0
-10 3 -10 15 0 12 10 15 10 15 0 0 -10 3 -10 15 0 8 7 15 9 15 4 0 -11 51 -10
68 0 7 4 12 2 12 -5 0 -8 4 -8 15 1 12 10 15 10 15 0 0 -10 3 -10 15 0 12 10
15 10 15 0 0 -10 3 -10 15 0 12 10 15 10 15 -1 0 -11 2 -11 10 1 7 11 10 11
10 2 0 -10 5 -10 20 -2 14 8 20 8 20 0 0 -8 6 -8 20 0 14 8 20 8 20 0 0 -6 5
-8 11 -4 6 3 9 22 7 40 -2 19 -2 34 2 34 3 0 3 22 2 50 -3 38 -8 51 -23 55
-10 4 -23 3 -29 0 -5 -3 -10 -2 -10 4 0 10 -25 9 -36 -2 -4 -4 -13 -2 -21 4
-10 9 -17 8 -28 -1 -12 -10 -15 -10 -15 0 0 9 -4 9 -17 -1 -11 -10 -14 -10 -9
-1 4 6 2 12 -3 12 -6 0 -11 -4 -11 -9 0 -11 -33 -9 -41 2 -3 4 -18 3 -32 -2
-15 -6 -27 -7 -27 -2 0 10 -26 9 -36 -2 -4 -4 -13 -2 -21 4 -10 9 -17 8 -28
-1 -12 -10 -15 -10 -15 0 0 9 -4 9 -17 -1 -11 -10 -14 -10 -9 -1 4 6 2 12 -3
12 -6 0 -11 -4 -11 -9 0 -11 -33 -9 -41 2 -3 4 -18 3 -32 -2 -15 -6 -27 -7
-27 -2 0 5 -8 8 -17 6 -10 -2 -18 -4 -18 -5 0 -1 -8 -3 -18 -5 -9 -2 -15 1
-11 6 7 11 1 11 -30 -1 -17 -6 -26 -6 -26 1 0 6 -7 6 -20 -1 -14 -8 -20 -8
-20 0 0 8 -6 8 -20 0 -14 -8 -20 -8 -20 0 0 8 -6 8 -20 0 -14 -8 -20 -8 -20 0
0 8 -6 8 -20 0 -14 -8 -20 -8 -20 0 0 8 -6 8 -20 0 -14 -8 -20 -8 -20 0 0 8
-6 8 -20 0 -14 -8 -20 -8 -20 0 0 8 -6 8 -20 0 -14 -8 -20 -8 -20 0 0 8 -6 8
-20 0 -14 -8 -20 -8 -20 0 0 8 -6 8 -20 0 -12 -6 -20 -7 -20 -1 0 11 -19 9
-39 -3 -8 -5 -16 -4 -21 4 -8 13 -16 13 -42 -1 -11 -6 -18 -5 -20 3 -3 9 -6 9
-12 0z"/>
<path d="M3010 10961 c0 -5 -9 -7 -20 -4 -12 3 -29 -2 -40 -12 -10 -9 -24 -14
-29 -10 -6 3 -11 2 -11 -3 0 -5 -11 -8 -24 -7 -14 2 -34 -7 -49 -21 -14 -13
-31 -24 -37 -24 -16 0 -69 -63 -70 -82 0 -10 -9 -22 -21 -29 -14 -7 -19 -17
-16 -30 3 -11 0 -19 -6 -19 -7 0 -5 -5 3 -10 10 -6 11 -10 2 -10 -6 0 -11 -3
-11 -7 4 -18 -14 -73 -23 -73 -6 0 -8 -18 -6 -40 2 -22 1 -40 -2 -40 -3 0 -3
-31 0 -70 3 -38 2 -70 -1 -70 -3 0 -3 -18 1 -40 4 -22 5 -40 1 -40 -3 0 -5
-36 -3 -80 2 -44 8 -80 13 -80 6 0 7 -4 4 -10 -6 -9 8 -15 29 -11 5 1 13 -4
18 -11 5 -8 11 -9 16 -3 8 12 35 13 43 2 3 -4 18 -3 32 2 15 6 27 7 27 2 0
-10 26 -9 36 2 4 4 13 2 21 -4 10 -9 17 -8 28 1 12 10 15 10 15 0 0 -9 4 -9
17 1 11 10 14 10 9 2 -4 -7 -2 -13 3 -13 6 0 11 3 11 8 0 4 11 7 24 7 13 0 22
-3 19 -7 -6 -10 1 -10 31 2 17 6 26 6 26 -1 0 -6 7 -6 20 1 14 8 20 8 20 0 0
-8 6 -8 20 0 14 8 20 8 20 0 0 -8 6 -8 20 0 14 8 20 8 20 0 0 -8 6 -8 20 0 14
8 20 8 20 0 0 -8 6 -8 20 0 14 8 20 8 20 0 0 -8 6 -8 20 0 14 8 20 8 20 0 0
-7 6 -8 19 0 14 7 21 6 24 -3 4 -8 8 -8 14 -2 10 12 36 13 44 2 3 -4 18 -3 32
2 15 6 27 7 27 2 0 -10 26 -9 36 2 4 4 13 2 21 -4 10 -9 17 -8 28 1 12 10 15
10 15 0 0 -9 4 -9 17 1 11 10 14 10 9 2 -4 -7 -2 -13 3 -13 6 0 11 3 11 8 0 4
11 7 24 7 13 0 22 -3 19 -7 -6 -10 1 -10 31 2 17 6 26 6 26 -1 0 -6 7 -6 20 1
14 8 20 8 20 0 0 -8 6 -8 20 0 14 8 20 8 20 0 0 -7 6 -8 19 0 14 7 21 6 24 -3
4 -9 6 -9 6 0 1 7 8 10 17 6 14 -5 16 1 13 40 -2 26 -1 47 3 47 5 0 8 5 8 11
0 5 -4 8 -8 5 -5 -3 -6 8 -4 24 2 17 1 38 -3 47 -5 10 -8 21 -7 25 1 4 -9 3
-23 -2 -16 -6 -25 -6 -25 1 0 6 -7 6 -20 -1 -14 -8 -20 -8 -20 0 0 8 -6 8 -20
0 -12 -6 -20 -7 -20 -1 0 5 -8 8 -17 6 -10 -2 -18 -4 -18 -5 0 -1 -8 -3 -18
-5 -9 -2 -15 1 -11 6 7 11 1 11 -30 -1 -17 -6 -26 -6 -26 1 0 6 -7 6 -20 -1
-14 -8 -20 -8 -20 0 0 8 -6 8 -20 0 -14 -8 -20 -8 -20 0 0 8 -6 8 -20 0 -12
-6 -20 -7 -20 -1 0 10 -19 9 -38 -2 -18 -12 -39 14 -44 56 -2 20 -1 37 2 37 4
0 4 23 0 50 -4 28 -3 50 2 50 5 0 4 9 -2 20 -8 14 -8 20 0 20 8 0 8 6 0 20 -8
15 -8 20 2 20 9 0 9 3 -2 10 -8 5 -10 10 -3 10 6 0 9 9 6 20 -3 11 -10 20 -15
20 -5 0 -6 5 -3 10 3 6 0 12 -7 15 -8 3 -15 20 -16 38 -2 17 -7 34 -12 35 -6
2 -10 10 -10 18 0 8 -5 14 -11 14 -5 0 -7 5 -4 10 3 6 1 10 -6 10 -7 0 -9 3
-6 6 3 4 -5 15 -18 26 -14 11 -22 25 -18 31 3 7 3 9 -2 5 -9 -8 -66 21 -78 40
-5 7 -13 9 -19 6 -6 -4 -14 0 -19 7 -6 11 -11 11 -20 2 -9 -9 -17 -7 -33 8
-15 15 -31 19 -58 17 -20 -2 -34 0 -32 4 3 5 0 8 -5 8 -6 0 -11 -4 -11 -9z
m-4 -210 c11 9 14 9 14 0 0 -9 5 -9 20 -1 15 8 20 8 20 -1 0 -8 4 -8 15 1 12
10 15 10 15 0 0 -10 3 -10 15 0 11 9 15 9 15 1 0 -7 4 -10 8 -7 5 3 18 -3 29
-14 12 -10 24 -16 27 -13 3 4 6 1 6 -5 0 -7 6 -12 13 -12 17 0 65 -62 73 -96
4 -16 11 -35 17 -41 5 -7 6 -13 1 -13 -4 0 1 -7 12 -15 10 -8 15 -14 9 -15 -6
0 -9 -30 -7 -75 3 -63 1 -75 -12 -75 -9 0 -15 -3 -15 -7 4 -22 -4 -29 -28 -28
-16 1 -32 -1 -38 -4 -18 -10 -35 -10 -29 0 7 11 1 11 -30 -1 -17 -6 -26 -6
-26 1 0 6 -7 6 -20 -1 -14 -8 -20 -8 -20 0 0 8 -6 8 -20 0 -14 -8 -20 -8 -20
0 0 8 -6 8 -20 0 -12 -6 -20 -7 -20 -1 0 5 -8 8 -17 6 -10 -2 -18 -4 -18 -5 0
-1 -8 -3 -18 -5 -9 -2 -15 1 -11 6 7 11 1 11 -30 -1 -17 -6 -26 -6 -26 1 0 6
-7 6 -20 -1 -14 -8 -20 -8 -20 0 0 8 -6 8 -20 0 -14 -8 -20 -8 -20 0 0 6 -4 9
-9 6 -5 -3 -16 5 -25 19 -9 14 -12 25 -7 25 6 0 6 12 1 30 -5 17 -5 30 0 30 4
0 6 10 2 22 -3 11 -1 19 4 16 5 -4 9 5 9 18 0 13 -3 24 -7 24 -4 0 -3 12 2 26
12 31 12 37 1 30 -5 -4 -7 3 -4 14 3 11 10 20 15 20 5 0 7 4 4 9 -3 5 3 11 14
14 11 3 19 11 18 18 -2 7 8 18 22 26 14 7 21 13 16 13 -5 0 -3 6 4 14 6 8 18
12 26 9 8 -3 14 0 14 5 0 9 31 25 52 27 3 0 10 4 14 8 5 5 10 3 12 -3 3 -8 8
-8 18 1z"/>
<path d="M3213 9597 c-21 -11 -33 -14 -33 -7 0 6 -5 8 -12 4 -6 -4 -27 -9 -47
-11 -40 -4 -111 -33 -111 -46 0 -5 -5 -5 -10 -2 -6 3 -22 -3 -36 -14 -15 -11
-30 -18 -35 -15 -5 3 -9 0 -9 -6 0 -6 -5 -8 -12 -4 -8 5 -9 2 -5 -10 4 -10 3
-15 -3 -11 -6 3 -10 2 -10 -3 0 -5 -9 -12 -21 -15 -12 -3 -18 -10 -14 -16 3
-6 0 -11 -8 -11 -7 0 -20 -12 -27 -26 -8 -14 -22 -30 -32 -35 -10 -5 -18 -15
-18 -22 0 -7 -9 -20 -20 -30 -11 -9 -20 -25 -20 -35 0 -11 -9 -27 -20 -37 -11
-10 -20 -28 -20 -41 0 -13 -5 -26 -11 -30 -8 -5 -8 -9 1 -14 9 -6 7 -11 -9
-19 -12 -7 -19 -16 -16 -22 4 -5 1 -9 -6 -9 -8 0 -8 -4 1 -15 9 -11 9 -15 1
-15 -7 0 -9 -5 -6 -10 4 -6 1 -17 -5 -25 -10 -12 -10 -15 1 -15 12 0 12 -2 0
-9 -9 -6 -10 -10 -2 -16 9 -5 9 -10 0 -21 -9 -11 -8 -14 2 -14 10 0 10 -3 1
-12 -8 -8 -9 -15 -1 -25 9 -10 8 -13 -1 -13 -10 0 -10 -3 0 -15 7 -8 8 -15 3
-15 -5 0 -9 -9 -9 -20 0 -11 3 -20 6 -20 4 0 7 -7 7 -15 0 -8 -5 -15 -11 -15
-6 0 -5 -5 2 -12 7 -7 12 -29 12 -50 0 -29 4 -38 17 -38 9 0 14 -3 11 -6 -4
-3 0 -17 7 -31 7 -14 11 -32 8 -40 -3 -8 4 -21 16 -29 11 -8 21 -23 21 -33 0
-9 11 -27 25 -39 14 -12 25 -31 25 -42 0 -11 3 -19 8 -19 22 4 32 -3 32 -21 0
-13 5 -18 15 -14 9 4 15 0 15 -10 0 -9 5 -16 11 -16 5 0 7 -5 4 -10 -4 -6 -3
-10 2 -9 20 5 63 -15 63 -28 0 -9 6 -13 15 -9 8 3 15 0 15 -6 0 -6 3 -8 6 -5
4 4 15 -3 25 -15 11 -11 19 -18 19 -14 0 3 16 0 35 -8 26 -11 35 -12 35 -3 0
8 3 8 8 2 12 -18 77 -45 81 -34 2 6 11 3 22 -7 13 -12 19 -13 19 -4 0 10 3 10
15 0 12 -10 15 -10 15 0 0 10 3 10 14 1 11 -9 15 -9 20 1 5 11 7 11 12 0 5
-10 9 -10 22 0 13 11 14 11 7 -1 -5 -10 -4 -12 4 -7 21 14 72 25 66 15 -4 -5
-1 -9 4 -9 6 0 11 5 11 10 0 6 5 10 12 10 6 0 20 7 30 17 10 9 18 12 18 7 0
-5 9 -10 20 -10 11 0 20 4 20 8 0 4 7 8 15 8 8 0 15 4 15 8 0 5 18 15 41 22
22 8 45 22 50 32 5 10 16 18 23 18 7 0 21 11 32 24 10 14 21 23 26 20 4 -3 8
2 8 11 0 9 9 19 19 22 11 3 22 14 24 25 3 11 10 17 16 13 11 -6 15 7 12 34 -2
7 1 11 6 8 4 -3 14 1 21 9 7 8 9 14 5 14 -4 0 -2 5 5 12 7 7 12 20 12 30 0 10
7 21 15 24 8 4 15 12 15 20 0 8 3 14 8 14 4 0 6 19 4 41 -3 27 -1 39 6 35 6
-3 9 1 8 11 -2 10 3 23 10 31 7 7 11 19 8 27 -4 8 -1 15 4 15 7 0 8 10 2 30
-5 17 -5 30 0 30 5 0 5 13 0 30 -5 17 -5 30 0 30 5 0 7 6 5 13 -2 6 -6 27 -9
46 -3 19 -9 37 -15 40 -6 4 -12 18 -13 31 -2 14 -7 28 -13 32 -6 5 -5 8 4 8
11 0 11 3 1 15 -9 11 -9 15 -1 15 8 0 6 10 -6 30 -9 17 -21 30 -26 30 -4 0 -5
5 -2 10 3 6 1 10 -4 10 -6 0 -11 5 -11 11 0 5 6 7 13 4 6 -4 4 0 -5 8 -10 8
-15 17 -11 20 3 4 -2 9 -11 13 -9 3 -16 15 -16 25 0 10 -5 19 -11 19 -5 0 -7
5 -4 10 3 6 -1 10 -9 10 -9 0 -16 7 -16 15 0 8 -9 20 -20 27 -11 7 -20 18 -20
25 0 7 -6 13 -12 13 -7 0 -27 12 -43 28 -17 15 -37 28 -45 30 -7 2 -22 12 -31
24 -10 11 -23 17 -28 13 -6 -3 -11 0 -11 7 0 9 -2 10 -8 1 -5 -8 -15 -4 -34
12 -15 13 -25 25 -23 26 2 2 -17 2 -41 0 -32 -2 -44 1 -44 10 0 11 -3 10 -10
-1 -6 -9 -10 -11 -10 -3 0 7 -6 10 -14 7 -8 -3 -17 0 -21 5 -3 6 -11 9 -16 6
-5 -4 -9 -2 -9 4 0 6 -11 6 -29 1 -17 -4 -31 -5 -33 -1 -2 4 -18 -1 -35 -12z
m68 -187 c16 5 29 5 29 0 0 -4 8 -7 18 -5 9 1 23 -2 30 -8 8 -6 12 -6 12 1 0
16 34 9 48 -11 7 -9 18 -15 23 -12 5 4 9 0 9 -7 0 -9 3 -9 10 2 7 11 10 11 10
2 0 -7 4 -10 10 -7 11 7 70 -25 70 -37 0 -4 9 -8 20 -8 21 0 120 -90 120 -110
0 -5 7 -10 15 -10 8 0 14 -6 13 -12 -2 -7 2 -12 8 -11 7 1 10 -6 7 -17 -3 -12
0 -20 8 -20 7 0 9 -3 6 -6 -3 -4 2 -18 13 -32 11 -13 17 -28 14 -33 -3 -5 0
-9 6 -9 8 0 8 -6 0 -20 -8 -14 -8 -20 0 -20 8 0 8 -6 0 -20 -7 -13 -7 -20 -1
-20 6 0 8 -7 5 -15 -4 -8 0 -23 7 -32 12 -14 12 -16 0 -8 -11 6 -13 4 -8 -7 3
-9 3 -19 -1 -22 -10 -10 -11 -36 -2 -36 5 0 5 -13 0 -30 -6 -21 -5 -30 3 -31
8 0 8 -2 -1 -6 -6 -2 -10 -9 -7 -13 3 -5 -5 -16 -17 -25 -13 -8 -22 -18 -20
-20 7 -14 1 -35 -9 -29 -7 4 -10 1 -7 -7 2 -7 -6 -23 -19 -35 -12 -11 -20 -24
-16 -27 3 -4 1 -7 -6 -7 -16 0 -42 -26 -34 -34 6 -6 -12 -10 -29 -7 -5 0 -8
-4 -8 -10 0 -5 -4 -8 -9 -4 -5 3 -12 -4 -16 -15 -4 -11 -11 -18 -16 -15 -5 4
-9 2 -9 -2 0 -5 -12 -10 -27 -11 -16 -1 -36 -11 -45 -23 -10 -12 -18 -19 -18
-16 0 3 -13 2 -30 -3 -19 -5 -30 -5 -30 1 0 6 -8 5 -20 -1 -15 -8 -20 -8 -20
1 0 7 -7 8 -17 4 -10 -4 -24 -8 -30 -8 -7 0 -13 -3 -13 -6 0 -3 -22 -4 -50 -3
-27 2 -50 9 -50 14 0 6 -8 4 -17 -3 -11 -10 -14 -10 -9 -1 9 15 -6 16 -22 0
-8 -8 -12 -8 -12 -1 0 11 -41 10 -61 -3 -8 -4 -9 -3 -5 4 5 8 0 12 -13 12 -12
0 -21 7 -21 16 0 8 -4 13 -9 9 -5 -3 -12 -1 -16 4 -3 5 -14 8 -25 6 -12 -2
-27 6 -41 23 -11 15 -22 25 -22 22 -1 -2 -13 3 -27 13 -13 9 -20 17 -15 17 6
0 -1 6 -15 13 -14 8 -24 19 -22 25 1 7 -5 12 -13 12 -19 0 -42 40 -23 40 7 0
1 10 -15 21 -15 11 -25 25 -21 30 3 5 2 9 -3 9 -4 0 -9 16 -10 36 -1 20 -9 44
-17 53 -9 10 -13 21 -9 24 3 4 1 7 -6 7 -9 0 -9 5 -1 20 8 14 8 20 0 20 -8 0
-8 6 0 20 7 13 7 20 1 20 -11 0 7 50 22 61 4 3 9 17 9 30 1 13 4 29 7 34 4 6
6 19 6 30 0 10 10 30 22 43 13 14 20 28 17 33 -5 9 11 13 31 9 6 -1 7 2 3 6
-15 14 102 124 132 124 5 0 10 5 10 11 0 5 5 7 10 4 6 -3 13 1 16 10 4 10 13
13 26 9 12 -3 18 -2 15 3 -3 5 4 9 16 8 12 -1 28 4 35 12 7 7 30 14 50 15 55
2 60 3 69 11 4 5 9 4 11 -2 2 -6 14 -6 33 -1z"/>
<path d="M3510 7848 c0 -4 -6 -8 -14 -8 -8 0 -17 -8 -20 -17 -4 -11 -10 -13
-17 -6 -13 13 -69 4 -76 -13 -3 -8 -9 -14 -14 -14 -13 0 -49 -38 -49 -52 0 -6
-3 -8 -6 -5 -10 9 -46 -41 -39 -53 3 -5 1 -10 -5 -10 -6 0 -9 -4 -6 -9 3 -5
-3 -11 -14 -14 -12 -3 -20 -14 -20 -27 0 -12 -10 -36 -22 -53 -13 -18 -21 -40
-20 -49 2 -10 -6 -30 -17 -44 -11 -15 -18 -30 -15 -35 3 -5 1 -9 -5 -9 -7 0
-7 -8 -1 -24 7 -19 5 -26 -6 -30 -8 -3 -12 -10 -9 -16 3 -5 -1 -10 -9 -10 -14
0 -21 -24 -17 -52 0 -4 -13 -22 -29 -40 -16 -17 -25 -35 -20 -38 10 -6 -24
-40 -41 -40 -5 0 -8 -4 -4 -9 16 -27 -113 -42 -144 -17 -12 9 -13 8 -6 -4 8
-13 7 -13 -8 -1 -14 11 -17 11 -17 0 0 -11 -2 -11 -9 1 -6 8 -8 18 -5 22 3 4
-6 10 -20 14 -16 4 -23 11 -19 20 3 8 -1 14 -8 14 -11 0 -11 3 1 10 8 5 10 10
5 10 -6 0 -11 9 -12 20 -1 11 -11 32 -23 47 -11 14 -17 29 -13 32 13 9 12 41
-1 41 -6 0 -4 5 4 10 11 7 11 10 2 10 -10 0 -10 5 -2 20 8 15 8 20 -1 20 -8 0
-6 7 4 18 10 10 17 23 17 29 0 6 6 14 13 16 9 4 9 6 -1 6 -10 1 -9 5 3 17 9 9
14 21 12 28 -2 6 9 20 24 32 16 11 27 23 24 26 -3 2 7 10 23 17 15 8 35 18 46
23 14 7 16 6 11 -4 -3 -7 3 -2 14 11 21 24 29 47 12 37 -5 -4 -8 2 -6 11 2 10
4 18 5 18 1 0 3 7 4 15 1 8 -6 23 -16 33 -10 9 -18 13 -18 8 0 -6 -12 -6 -30
-1 -18 5 -30 5 -30 -1 0 -5 -6 -9 -13 -9 -14 0 -107 -82 -107 -95 0 -4 -9 -15
-20 -25 -11 -9 -21 -26 -23 -36 -1 -10 -6 -25 -10 -31 -5 -7 -5 -13 -1 -13 4
0 0 -6 -10 -13 -12 -9 -19 -28 -20 -53 -1 -21 -5 -45 -9 -51 -5 -8 -3 -13 4
-13 8 0 8 -4 -1 -15 -9 -11 -9 -15 -1 -15 9 0 9 -5 1 -20 -8 -15 -8 -20 2 -20
10 0 10 -2 -1 -9 -9 -6 -10 -11 -2 -15 7 -5 7 -15 1 -31 -7 -17 -6 -25 1 -25
6 0 9 -7 5 -15 -3 -8 0 -15 7 -15 9 0 9 -2 -1 -8 -10 -7 -7 -15 10 -37 12 -16
24 -40 26 -53 3 -23 57 -103 75 -110 4 -2 21 -15 37 -29 17 -14 30 -20 30 -13
0 6 10 3 24 -7 13 -10 23 -20 21 -23 -2 -3 14 -5 36 -5 21 0 39 -3 39 -8 0 -4
9 -3 20 3 14 7 20 7 20 0 0 -14 22 -8 38 10 8 8 11 9 7 3 -3 -7 -2 -13 3 -13
6 0 13 8 16 17 6 15 8 15 16 3 8 -13 10 -13 10 1 0 18 27 34 32 18 4 -11 84
60 80 72 -1 5 3 9 9 9 5 0 7 5 4 10 -3 6 1 10 9 10 14 0 20 12 17 33 0 4 3 7
9 7 6 0 9 3 9 8 -3 20 3 32 17 32 8 0 13 4 10 9 -4 5 0 12 6 14 9 4 10 6 1 6
-9 1 -8 8 2 28 8 15 12 30 9 35 -3 4 -1 8 5 8 6 0 15 10 22 21 9 17 8 20 -3
13 -7 -4 -4 2 6 14 11 12 14 22 8 22 -6 0 -5 11 4 30 9 17 18 30 20 30 3 0 2
-6 -2 -12 -4 -7 -4 -10 1 -6 4 4 9 26 11 49 2 27 11 47 25 60 13 12 20 26 16
38 -3 13 -1 18 8 14 8 -2 20 8 29 24 8 15 15 24 16 19 0 -5 9 3 21 18 11 14
25 24 30 21 5 -4 9 0 9 7 0 9 3 9 10 -2 7 -11 10 -11 10 -2 0 7 5 10 10 7 6
-3 10 -2 10 4 0 6 6 8 14 5 8 -3 17 0 21 6 5 9 9 9 14 1 4 -6 19 -12 34 -13
15 -1 27 -6 27 -10 0 -4 11 -8 24 -8 13 0 30 -8 37 -17 12 -15 12 -16 -1 -8
-11 6 -10 3 3 -12 9 -11 17 -25 17 -31 0 -7 7 -12 16 -12 11 0 14 -6 9 -21 -4
-13 -3 -19 2 -16 13 8 11 -36 -2 -45 -6 -5 -5 -8 3 -8 10 0 10 -5 2 -20 -6
-11 -7 -20 -2 -20 10 0 13 -79 4 -95 -9 -15 -11 -56 -3 -51 8 5 9 -36 1 -44
-3 -3 -14 -22 -25 -42 -11 -21 -23 -38 -27 -38 -5 0 -8 -7 -8 -15 0 -8 -4 -14
-9 -13 -5 2 -16 -5 -23 -14 -7 -9 -26 -19 -41 -21 -16 -2 -32 -9 -37 -16 -4
-8 -13 -10 -19 -7 -6 4 -11 2 -11 -4 0 -6 -4 -8 -10 -5 -5 3 -10 -1 -10 -9 0
-9 -6 -16 -12 -16 -9 0 -8 -4 2 -10 11 -7 11 -10 2 -10 -10 0 -10 -5 -2 -20 8
-15 8 -20 -1 -20 -8 0 -9 -4 0 -13 6 -8 7 -18 3 -22 -4 -5 -1 -5 6 -1 6 4 12
2 12 -4 0 -6 5 -8 10 -5 6 3 10 2 10 -4 0 -10 19 -9 38 2 6 5 12 5 12 1 0 -4
8 0 18 8 16 14 57 33 57 26 1 -10 115 118 115 129 0 8 9 24 20 36 11 12 18 27
16 34 -3 7 -1 13 3 13 5 0 7 9 4 20 -3 11 0 27 7 35 7 8 9 15 5 15 -4 0 0 12
10 26 9 14 15 35 12 45 -3 10 -2 19 3 19 4 0 4 18 0 40 -4 22 -4 40 0 40 4 0
4 18 0 40 -4 22 -5 40 -2 40 3 0 -2 8 -10 18 -19 21 -40 82 -28 82 13 0 0 37
-21 56 -10 9 -19 23 -19 30 0 18 -72 90 -98 98 -12 4 -22 14 -22 22 0 10 -13
14 -51 14 -31 0 -48 4 -44 10 3 6 -1 10 -9 10 -9 0 -16 5 -16 10 0 7 -6 7 -20
0 -11 -6 -20 -7 -20 -2 0 4 -9 8 -20 8 -11 0 -20 -4 -20 -8z"/>
<path d="M3150 6559 c0 -3 -11 -4 -25 -1 -15 2 -36 -3 -52 -14 -16 -10 -31
-17 -35 -16 -5 1 -8 -2 -8 -7 0 -6 -8 -8 -18 -6 -11 2 -26 -7 -37 -21 -9 -13
-22 -21 -27 -18 -5 3 -15 0 -23 -6 -8 -7 -15 -9 -15 -4 0 4 -11 -6 -23 -24
-13 -17 -26 -30 -28 -29 -2 2 -15 -8 -29 -22 -14 -13 -18 -21 -10 -17 8 4 2
-5 -15 -20 -16 -14 -31 -36 -32 -47 -2 -11 -16 -31 -31 -45 -15 -13 -20 -21
-12 -16 12 6 13 5 3 -8 -7 -8 -10 -18 -6 -21 3 -4 -3 -17 -14 -30 -12 -12 -23
-38 -24 -57 -2 -19 -8 -41 -13 -49 -9 -12 -8 -13 4 -6 13 8 13 7 1 -8 -7 -9
-10 -17 -6 -17 4 0 0 -12 -10 -26 -9 -14 -15 -35 -12 -45 3 -11 0 -19 -6 -19
-7 0 -5 -5 3 -10 9 -6 10 -10 3 -10 -8 0 -9 -9 -3 -30 5 -17 5 -30 0 -30 -5 0
-5 -13 0 -30 5 -19 5 -30 -1 -30 -6 0 -5 -8 1 -20 6 -12 7 -20 1 -20 -6 0 -6
-11 -1 -30 5 -17 5 -30 0 -30 -5 0 -5 -13 0 -30 5 -19 5 -30 -1 -30 -6 0 -5
-8 1 -20 6 -12 7 -20 1 -20 -6 0 -6 -11 -1 -29 5 -18 4 -31 -1 -33 -9 -3 35
-60 45 -59 3 1 7 1 9 0 16 -4 107 -3 107 2 0 3 23 3 50 -1 28 -4 50 -3 50 2 0
5 9 4 20 -2 14 -8 20 -8 20 0 0 8 6 8 20 0 14 -8 20 -8 20 0 0 8 6 8 20 0 14
-8 20 -8 20 0 0 8 6 8 20 0 14 -8 20 -8 20 0 0 8 6 8 20 0 14 -8 20 -8 20 0 0
8 6 8 20 0 14 -8 20 -8 20 0 0 8 6 8 20 0 11 -6 20 -7 20 -2 0 5 23 6 50 2 28
-4 50 -4 50 0 0 3 27 3 60 0 33 -3 60 -3 60 0 0 3 27 3 60 0 33 -3 60 -3 60 0
0 3 27 3 60 0 33 -3 60 -3 60 0 0 3 27 3 60 0 33 -3 60 -3 60 0 0 3 21 5 47 5
l48 0 0 78 c0 42 2 77 5 77 3 0 3 27 0 60 -3 33 -3 60 0 60 3 0 3 27 0 60 -3
33 -3 60 0 60 3 0 3 27 0 60 -4 38 -2 60 5 60 5 0 3 5 -5 10 -8 5 -10 10 -4
10 17 0 1 81 -24 122 -13 21 -18 38 -12 40 6 2 -4 20 -21 41 -18 22 -25 37
-17 37 7 0 1 11 -14 24 -16 13 -28 28 -28 33 0 5 -12 22 -27 36 -16 15 -37 36
-47 47 -11 11 -28 20 -38 20 -11 0 -16 5 -13 10 3 6 -4 14 -17 19 -13 5 -30
16 -37 25 -7 9 -17 13 -22 10 -5 -3 -12 1 -15 10 -3 8 -12 12 -19 9 -8 -2 -27
4 -43 15 -22 16 -47 21 -115 24 -48 2 -87 1 -87 -2 0 -3 -27 -3 -60 0 -33 3
-60 3 -60 -1z m100 -181 c0 7 4 11 8 8 5 -3 27 -6 50 -7 23 -2 42 -7 42 -11 0
-4 7 -8 15 -8 8 0 15 -4 15 -9 0 -4 12 -7 28 -7 15 1 33 -3 40 -8 8 -5 12 -4
12 5 0 10 3 10 8 3 11 -17 69 -44 77 -36 5 4 5 2 2 -4 -4 -7 3 -14 18 -18 14
-4 25 -13 25 -22 0 -8 5 -12 10 -9 6 3 10 1 10 -5 0 -6 5 -8 10 -5 6 3 10 1
10 -5 0 -7 13 -24 30 -40 16 -15 26 -30 23 -34 -3 -3 -1 -6 6 -6 8 0 11 -7 7
-15 -3 -9 0 -15 8 -15 7 0 19 -7 26 -15 10 -12 10 -15 0 -15 -9 0 -10 -3 -1
-13 6 -8 8 -17 4 -20 -3 -4 0 -7 8 -7 11 0 11 -2 -1 -10 -11 -7 -11 -10 -2
-10 7 0 11 -4 7 -9 -3 -5 4 -16 15 -24 14 -10 18 -20 14 -32 -5 -12 -4 -16 3
-12 7 4 10 0 8 -10 -2 -10 -4 -18 -5 -18 -1 0 -3 -8 -5 -17 -2 -10 1 -18 6
-18 6 0 5 -8 -1 -20 -8 -14 -8 -20 0 -20 8 0 8 -6 0 -20 -6 -12 -7 -20 -1 -20
6 0 6 -11 1 -30 -6 -20 -5 -30 2 -30 6 0 6 -6 -2 -15 -7 -8 -9 -15 -5 -15 4 0
2 -7 -6 -16 -7 -9 -22 -14 -36 -11 -13 2 -23 1 -23 -2 0 -3 -31 -4 -70 -1 -38
3 -70 2 -70 -2 0 -3 -13 -3 -30 2 -17 5 -30 5 -30 0 0 -5 -13 -5 -30 0 -16 5
-30 5 -30 2 0 -4 -31 -5 -70 -2 -38 3 -70 2 -70 -1 0 -3 -18 -3 -40 1 -22 4
-40 4 -40 1 0 -3 -31 -4 -70 -1 -38 3 -70 2 -70 -2 0 -3 -13 -3 -30 2 -17 5
-30 5 -30 0 0 -5 -13 -5 -30 0 -16 5 -30 6 -30 2 0 -12 -172 -1 -185 11 -17
18 -26 47 -14 47 6 0 6 7 -1 20 -8 14 -8 20 0 20 8 0 8 6 0 20 -8 14 -8 20 0
20 6 0 8 4 5 10 -3 5 -1 19 5 30 8 15 8 20 -1 20 -8 0 -8 4 -1 13 7 8 7 18 2
27 -5 8 -6 19 -2 25 10 15 11 35 3 35 -16 0 2 51 21 61 10 5 16 14 13 20 -4 5
0 9 7 9 10 0 9 3 -2 10 -12 8 -12 10 3 16 9 3 15 9 12 13 -2 4 5 14 16 21 10
8 19 21 19 28 0 8 16 29 35 48 19 18 35 31 35 28 0 -4 9 4 21 17 11 13 18 17
14 9 -4 -8 3 -4 14 10 14 18 21 21 22 10 0 -10 2 -11 6 -2 2 6 11 12 18 12 7
0 16 7 19 16 3 8 10 12 16 9 5 -3 10 -1 10 5 0 8 6 8 20 0 15 -8 20 -8 20 2 0
9 3 9 10 -2 7 -11 10 -11 10 -2 0 7 5 10 10 7 6 -3 10 -1 10 5 0 6 4 9 9 6 5
-4 11 -1 13 4 2 6 13 12 26 13 12 0 22 6 22 12 0 5 5 3 10 -5 7 -11 10 -11 10
-2z"/>
<path d="M3805 5009 c4 -5 -3 -9 -13 -9 -22 0 -46 -23 -35 -33 3 -4 2 -7 -4
-7 -7 0 -8 -14 -3 -40 4 -22 4 -40 1 -40 -3 0 -4 -31 -1 -70 3 -38 2 -70 -2
-70 -3 0 -3 -13 2 -30 5 -17 5 -30 0 -30 -5 0 -5 -13 0 -30 5 -16 5 -30 2 -30
-4 0 -5 -31 -2 -70 3 -38 3 -70 -1 -70 -3 0 -4 -13 -1 -30 3 -22 0 -30 -12
-31 -17 -2 -34 -5 -38 -9 -10 -7 -37 -7 -32 1 7 11 1 11 -30 -1 -17 -6 -26 -6
-26 1 0 6 -7 6 -20 -1 -14 -8 -20 -8 -20 0 0 8 -6 8 -20 0 -12 -6 -20 -7 -20
-1 0 10 -19 9 -37 -2 -8 -5 -13 -3 -13 3 0 8 -6 8 -20 0 -15 -8 -20 -8 -20 2
0 8 -3 9 -8 3 -8 -12 -53 -15 -46 -3 7 10 1 10 -30 -2 -16 -6 -26 -6 -26 0 0
5 -7 7 -14 4 -11 -4 -18 4 -24 28 -5 18 -6 34 -2 36 3 1 3 29 0 62 -3 33 -3
60 1 60 4 0 4 14 -1 30 -5 17 -5 30 0 30 5 0 5 13 0 30 -5 19 -5 30 1 30 6 0
8 4 5 8 -3 5 -6 43 -7 85 -1 48 -6 77 -13 77 -6 0 -4 4 3 9 12 8 9 11 -11 16
-14 4 -37 5 -49 3 -20 -2 -24 -9 -24 -41 0 -20 -3 -37 -7 -37 -4 0 -3 -13 2
-30 5 -17 5 -30 0 -30 -5 0 -5 -13 0 -30 5 -17 5 -30 0 -30 -5 0 -5 -13 0 -30
5 -17 5 -30 0 -30 -5 0 -5 -13 0 -30 5 -17 5 -30 0 -30 -5 0 -5 -13 0 -30 5
-16 6 -30 2 -30 -4 0 -5 -25 -4 -55 3 -36 -1 -59 -10 -67 -16 -15 -48 -20 -48
-7 0 6 -9 5 -20 -1 -14 -8 -20 -8 -20 0 0 8 -6 8 -20 0 -12 -6 -20 -7 -20 -1
0 10 -19 9 -37 -2 -8 -5 -13 -3 -13 3 0 8 -6 8 -20 0 -15 -8 -20 -8 -20 2 0 8
-3 9 -8 3 -8 -12 -53 -15 -46 -3 7 10 1 10 -30 -2 -17 -6 -26 -6 -26 1 0 6 -7
6 -20 -1 -14 -7 -20 -7 -20 0 0 5 -6 9 -12 7 -8 -1 -12 7 -11 21 2 13 -1 21
-5 18 -12 -7 -9 37 3 47 6 6 6 10 -2 14 -9 3 -10 10 -3 24 8 13 7 19 0 19 -8
0 -8 6 0 20 7 13 7 20 1 20 -7 0 -7 9 -1 26 12 31 12 37 1 30 -5 -4 -8 2 -6
11 2 10 4 18 5 18 1 0 3 8 5 18 2 9 -1 17 -6 17 -6 0 -5 8 1 20 8 14 8 20 0
20 -8 0 -8 6 0 20 8 14 8 20 0 20 -8 0 -8 6 0 20 8 14 8 20 0 20 -8 0 -8 6 0
20 8 14 8 20 0 20 -8 0 -8 6 0 20 7 13 7 20 1 20 -7 0 -7 9 -1 26 13 33 13 37
-2 28 -10 -6 -10 -5 -1 7 10 13 10 16 0 16 -6 1 -29 3 -49 6 -23 3 -39 1 -42
-6 -3 -8 -5 -8 -5 1 -1 10 -5 10 -17 -2 -8 -9 -12 -20 -9 -26 3 -5 2 -10 -3
-10 -4 0 -6 -22 -2 -50 4 -27 3 -50 -2 -50 -5 0 -4 -9 2 -20 6 -12 7 -20 1
-20 -6 0 -6 -11 -1 -30 5 -17 5 -30 0 -30 -5 0 -5 -13 0 -30 5 -19 5 -30 -1
-30 -6 0 -5 -8 1 -20 6 -12 7 -20 1 -20 -6 0 -6 -11 -1 -30 5 -17 5 -30 0 -30
-5 0 -5 -13 0 -30 5 -17 5 -30 0 -30 -5 0 -5 -13 0 -30 5 -16 5 -30 1 -30 -5
0 -5 -18 -1 -40 4 -22 4 -40 1 -40 -3 0 -4 -31 -1 -70 3 -38 1 -70 -3 -70 -5
0 -2 -7 6 -15 9 -8 17 -20 19 -27 5 -14 238 -29 238 -16 0 4 14 3 30 -2 17 -5
30 -5 30 0 0 5 13 5 30 0 17 -5 30 -5 30 0 0 5 13 5 30 0 17 -5 30 -5 30 0 0
5 13 5 30 0 17 -5 30 -5 30 0 0 5 13 5 30 0 17 -5 30 -5 30 0 0 5 13 5 30 0
17 -5 30 -5 30 0 0 5 13 5 30 0 17 -5 30 -5 30 0 0 5 13 5 30 0 17 -5 30 -5
30 0 0 5 13 5 30 0 17 -5 30 -5 30 0 0 5 13 5 30 0 17 -5 30 -6 30 -2 0 4 76
5 170 2 196 -6 195 -6 189 89 -2 28 -2 51 1 51 3 0 3 27 0 60 -3 33 -3 60 0
60 3 0 3 27 0 60 -3 33 -3 60 0 60 3 0 3 27 0 60 -3 33 -3 60 0 60 3 0 3 27 0
60 -3 33 -3 60 0 60 3 0 3 27 0 60 -4 38 -2 60 5 60 5 0 3 5 -5 10 -8 5 -10
10 -3 10 6 0 9 9 6 20 -3 11 -6 20 -7 20 -1 0 -16 4 -34 9 -20 6 -30 6 -27 0z"/>
<path d="M2720 3571 c-8 -6 -17 -8 -22 -5 -4 3 -17 -5 -28 -16 -39 -39 -16
-149 30 -150 20 -1 52 -25 43 -33 -3 -4 3 -8 15 -8 35 -2 36 -3 61 -26 13 -12
29 -19 37 -16 8 3 14 0 14 -6 0 -6 7 -8 17 -4 11 4 14 3 9 -5 -4 -7 -2 -12 4
-12 6 0 9 -4 5 -9 -3 -6 4 -8 15 -6 11 2 20 0 20 -5 0 -5 6 -7 14 -4 8 3 19
-3 25 -14 6 -11 18 -22 26 -26 9 -3 13 -2 10 4 -3 5 9 0 28 -13 19 -12 32 -26
29 -31 -2 -5 1 -6 9 -4 8 3 31 -6 52 -19 24 -15 37 -19 38 -11 0 7 5 3 11 -9
10 -21 16 -25 34 -22 4 0 10 -4 13 -10 4 -6 17 -12 30 -14 13 -2 30 -12 37
-21 7 -10 17 -15 23 -11 6 3 11 2 11 -4 0 -6 7 -7 17 -4 9 4 14 2 11 -3 -7
-11 17 -35 26 -27 3 4 6 2 6 -4 0 -6 10 -9 23 -6 12 3 19 2 15 -2 -12 -12 24
-34 55 -35 16 0 26 -4 23 -9 -3 -5 4 -11 15 -14 12 -3 18 -10 15 -15 -3 -5 5
-9 18 -9 33 0 86 -41 78 -62 -10 -29 -49 -60 -61 -48 -8 8 -11 7 -11 -2 0 -7
-5 -9 -10 -6 -6 3 -13 -1 -16 -9 -3 -9 -13 -16 -21 -16 -8 0 -11 -4 -8 -10 3
-5 1 -10 -4 -10 -6 0 -11 6 -11 13 0 8 -4 7 -10 -3 -5 -8 -10 -11 -10 -6 0 5
-11 -3 -25 -18 -14 -15 -30 -24 -35 -21 -6 3 -10 0 -10 -7 0 -10 -2 -10 -8 -1
-6 9 -12 7 -22 -7 -8 -11 -20 -20 -28 -20 -7 0 -10 -4 -7 -10 3 -6 -1 -7 -10
-4 -10 4 -26 -3 -41 -16 -13 -13 -24 -20 -24 -16 0 5 -7 3 -15 -4 -8 -7 -15
-9 -15 -4 0 5 -7 1 -14 -9 -8 -10 -21 -19 -29 -21 -8 -1 -27 -10 -43 -21 -16
-10 -31 -19 -34 -18 -3 0 -11 -7 -18 -16 -8 -9 -11 -10 -7 -4 4 9 1 11 -9 7
-9 -3 -13 -10 -10 -15 3 -5 -2 -9 -10 -9 -9 0 -16 -4 -16 -9 0 -6 -9 -8 -19
-6 -11 2 -32 -7 -47 -20 -15 -13 -31 -22 -36 -19 -4 3 -8 0 -8 -6 0 -6 -4 -9
-9 -6 -4 3 -16 -3 -26 -14 -10 -11 -28 -20 -41 -20 -13 0 -28 -9 -34 -20 -6
-11 -15 -18 -21 -15 -5 4 -9 2 -9 -4 0 -6 -7 -8 -15 -5 -8 3 -25 -5 -38 -20
-16 -17 -27 -22 -34 -15 -12 12 -58 -55 -48 -71 3 -5 2 -10 -3 -10 -13 0 -2
-52 16 -72 8 -10 18 -15 23 -13 4 3 11 0 16 -7 9 -15 43 -20 43 -8 0 5 14 5
30 0 17 -5 30 -5 30 0 0 5 13 5 30 0 17 -5 30 -5 30 0 0 5 13 5 30 0 17 -5 30
-5 30 -1 0 5 18 5 40 1 22 -4 40 -4 40 -1 0 3 32 4 70 1 39 -3 70 -2 70 2 0 3
14 3 30 -2 17 -5 30 -5 30 0 0 5 13 5 30 0 17 -5 30 -5 30 -2 0 4 32 5 70 2
39 -3 70 -2 70 1 0 3 18 3 40 -1 22 -4 40 -4 40 1 0 4 14 4 30 -1 17 -5 30 -5
30 0 0 5 13 5 30 0 17 -5 30 -5 30 0 0 5 13 5 30 0 19 -5 30 -5 30 1 0 6 8 5
20 -1 12 -6 20 -7 20 -1 0 6 11 6 30 1 17 -5 30 -5 30 0 0 5 13 5 30 0 17 -5
30 -5 30 0 0 4 9 10 21 13 12 3 18 10 14 16 -3 6 0 11 7 11 9 0 9 3 -2 10 -8
5 -10 10 -4 10 6 0 9 13 6 30 -4 27 -12 35 -34 31 -5 0 -8 4 -8 10 0 8 -5 8
-15 -1 -12 -10 -15 -10 -15 0 0 10 -3 10 -15 0 -12 -10 -15 -10 -15 1 0 11 -2
11 -10 -1 -8 -12 -10 -12 -10 -1 0 10 -3 11 -14 2 -10 -8 -16 -9 -21 -1 -4 7
-12 7 -26 0 -14 -8 -19 -7 -19 1 0 8 -4 8 -15 -1 -12 -10 -15 -10 -15 0 0 10
-3 10 -15 0 -12 -10 -15 -10 -15 1 0 11 -2 11 -10 -1 -7 -11 -10 -11 -10 -2 0
10 -5 10 -20 2 -11 -6 -20 -7 -20 -3 0 10 -92 9 -108 -1 -7 -4 -12 -3 -12 2 0
7 -32 8 -50 2 -14 -6 -47 -4 -62 2 -10 5 -18 3 -21 -5 -4 -9 -6 -9 -6 1 -1 6
-6 12 -12 12 -5 0 -7 -5 -3 -11 5 -8 1 -8 -14 0 -15 8 -22 8 -25 -2 -4 -9 -6
-8 -6 2 -1 11 -4 11 -17 0 -9 -7 -18 -9 -22 -3 -8 11 -32 11 -49 1 -8 -5 -13
-3 -13 3 0 6 -5 8 -11 5 -17 -11 -59 -13 -52 -3 3 6 -3 8 -15 4 -27 -9 -40 14
-16 27 10 6 29 21 41 33 13 13 23 19 23 13 0 -14 57 18 69 38 6 10 11 13 11 6
0 -6 9 -9 20 -6 11 3 17 10 13 15 -3 6 0 9 8 6 7 -2 22 5 32 16 10 12 15 15
12 8 -6 -11 -3 -11 16 0 13 7 34 21 46 32 12 10 26 15 32 11 6 -3 11 -1 11 6
0 7 3 10 6 6 3 -3 16 3 27 14 12 11 26 18 31 16 6 -2 19 5 30 14 10 10 23 16
28 13 4 -3 8 0 8 5 0 6 12 11 26 11 14 0 23 4 20 8 -5 9 27 29 54 34 8 2 21
11 28 21 7 9 22 17 33 17 11 0 29 9 41 20 11 10 34 22 49 25 16 4 35 14 41 24
7 9 22 16 33 16 22 0 50 22 50 39 0 6 6 11 14 11 8 0 16 5 18 11 4 13 -30 54
-46 54 -6 0 -11 5 -11 10 0 6 -7 10 -15 10 -9 0 -25 9 -37 20 -12 11 -29 20
-38 20 -9 0 -21 5 -28 12 -7 7 -12 9 -12 5 0 -3 -12 5 -26 18 -22 20 -30 23
-48 13 -11 -6 -18 -7 -14 -3 8 9 -29 51 -38 42 -3 -3 -16 3 -28 14 -29 28 -61
46 -51 28 5 -7 -4 -4 -18 7 -15 10 -27 23 -27 27 0 5 -4 5 -10 2 -5 -3 -10 -1
-10 6 0 8 -5 8 -17 -2 -10 -7 -15 -10 -11 -5 9 11 -16 36 -36 36 -9 0 -16 5
-16 11 0 5 -4 8 -9 4 -5 -3 -12 -1 -16 5 -4 6 -10 8 -15 5 -5 -3 -11 3 -15 14
-3 12 -15 19 -31 19 -15 0 -32 9 -40 21 -8 11 -26 21 -39 21 -13 0 -32 10 -42
23 -10 12 -29 23 -43 25 -13 1 -28 9 -32 16 -4 8 -19 17 -33 20 -30 8 -33 31
-5 46 12 6 20 7 20 1 0 -5 8 -8 18 -6 9 2 17 4 17 5 0 1 8 3 18 5 9 2 15 -1
11 -6 -7 -12 3 -11 27 1 13 7 19 7 19 1 0 -7 9 -7 25 -1 14 5 25 6 25 1 0 -5
8 -8 18 -6 9 2 17 4 17 5 0 1 8 3 18 5 9 2 15 -1 11 -6 -7 -12 3 -11 27 1 14
8 19 7 19 -1 0 -8 4 -8 15 1 8 7 15 8 15 3 0 -5 9 -9 20 -9 11 0 20 3 20 6 0
3 11 5 24 5 13 0 22 -3 19 -7 -6 -11 5 -10 28 2 13 7 19 7 19 1 0 -7 9 -7 25
-1 14 5 25 6 25 1 0 -5 8 -8 18 -6 9 2 17 4 17 5 0 1 8 3 18 5 9 2 15 -1 11
-6 -7 -12 3 -11 27 1 14 8 19 7 19 -1 0 -8 4 -8 15 1 8 7 15 8 15 3 0 -5 9 -9
20 -9 11 0 20 3 20 6 0 3 11 5 24 5 13 0 22 -3 19 -7 -6 -11 5 -10 28 2 11 6
19 7 19 1 0 -5 9 -7 20 -4 11 3 20 12 20 19 0 8 4 14 8 14 5 0 6 23 2 50 -4
28 -4 50 0 50 3 0 4 15 2 34 -4 30 -7 34 -33 32 -16 -1 -29 1 -29 5 0 4 -8 6
-17 4 -10 -2 -18 -4 -18 -5 0 -1 -8 -3 -18 -5 -9 -2 -15 1 -11 6 7 12 -3 11
-27 -1 -10 -6 -19 -7 -19 -2 0 5 -7 9 -15 9 -8 0 -15 -3 -15 -6 0 -3 -11 -6
-24 -6 -13 0 -22 3 -19 8 6 10 -5 9 -28 -3 -10 -6 -19 -7 -19 -2 0 5 -7 9 -15
9 -8 0 -15 -3 -15 -6 0 -3 -11 -6 -24 -6 -13 0 -22 3 -19 8 6 10 -5 9 -28 -3
-10 -6 -19 -7 -19 -2 0 5 -7 9 -15 9 -8 0 -15 -3 -15 -6 0 -3 -11 -6 -24 -6
-13 0 -22 3 -19 8 6 10 -5 9 -28 -3 -10 -6 -19 -7 -19 -2 0 5 -7 9 -15 9 -8 0
-15 -3 -15 -6 0 -3 -11 -6 -24 -6 -13 0 -22 3 -19 8 6 10 -5 9 -28 -3 -13 -7
-19 -7 -19 -1 0 7 -9 7 -25 1 -14 -5 -25 -6 -25 -1 0 5 -8 8 -17 6 -10 -2 -18
-4 -18 -5 0 -1 -8 -3 -18 -5 -9 -2 -15 1 -11 6 7 12 -3 11 -27 -1 -10 -6 -19
-7 -19 -2 0 5 -7 9 -15 9 -8 0 -15 -3 -15 -6 0 -3 -11 -6 -24 -6 -13 0 -22 3
-19 8 6 10 -5 9 -28 -3 -10 -6 -19 -7 -19 -2 0 5 -7 9 -15 9 -8 0 -15 -3 -15
-6 0 -3 -11 -6 -24 -6 -13 0 -22 3 -19 8 6 10 -5 9 -28 -3 -10 -6 -19 -7 -19
-2 0 5 -7 9 -15 9 -8 0 -15 -3 -15 -6 0 -3 -11 -6 -24 -6 -13 0 -22 3 -19 8 6
10 -9 9 -27 -2z"/>
</g>
</svg>
